<?xml version="1.0" encoding="UTF-8"?>
<svg id="Capa_1" data-name="Capa 1" xmlns="http://www.w3.org/2000/svg" viewBox="0 0 606.12 109.37">
  <defs>
    <style>
      .cls-1 {
        fill: #fff;
      }
    </style>
  </defs>
  <path class="cls-1" d="M81.51,4.58c.82-1.23,1.96-1.61,2.51-1.33.87.43,1.01,1.52.31,2.62-15.63,24.68-31.13,48.84-48.25,72.55-4.4,6.09-25.43,37.26-33.22,28.65C-6.2,97.05,8.77,1.91,13.11.05c.78-.33,2.13.92,1.89,2.12C10.1,26.72,1.25,79,4.73,102.53c.17,1.13,1.42,3.99,2.88,3.08,10.91-6.83,31.49-37.38,39.42-49.29L81.51,4.58Z"/>
  <path class="cls-1" d="M340.94,4.74c.7-1.05,1.34-1.31,1.95-1.49.65-.2,1.36-.07,1.86,1.22-17.45,27.58-34.83,54.75-54.3,81.02-3.07,4.14-22.84,31.36-28.42,21.2-2.84-5.16-2.76-11.43-2.57-17.56.91-29.58,5.11-58.55,11.59-87.24.27-1.19,1.6-1.95,2.27-1.79.61.15,1.35,1.38,1.12,2.54-5.5,27.71-9.77,55.34-10.99,83.73-.17,3.89-.23,17.42,2.08,18.84,5.97,3.66,37.69-43.76,42.08-50.36l33.33-50.11Z"/>
  <path class="cls-1" d="M62.1,73.27c-.46-5.74,6.06-15.73,8.9-14.06,2.63,1.55-7.62,11.4-4.48,14.54,3.72,3.71,22.51-8.22,26.76-10.94,3.97-2.55,9.2-5.54,12.38-3.46,1.31.86,3.21,3.42,1.63,5.09-1.69,1.79-2.55-2.1-3.77-2.69-4.41-.35-11.23,7.68-7.77,12.26,2.78,3.69,10.86,1.3,14.79-.62,24.72-12.09,19.3-10.01,33.22-33.29-3.21-2.24-34.49,3.14-31.35-.61,8.18-2.34,24.25-2.52,33.37-2.75l6.03-8.94c.7-1.03,2.62-2.4,3.32-1.26-.16,3.58-3.19,5.83-4.17,9.71l33.46.75c.74.02,1.18.65,1.51.76.46.15.7.91.43,1.29-.6.85-32.36-.46-37.67.35-12.33,19.87-23.51,39.53-34.41,59.91-3.03,5.67-1.39,10.3-4.96,10.04-6.59-.48,15.13-34.32,17.43-40.14-4.24.65-7.5,3.61-11.35,5.34-6.22,2.8-18.02,7.07-22.97,1.05-1.99-2.42-.96-5.21-1.12-8.49-7.18,3.72-13.52,8.13-21.25,9.88-3.02.68-7.69-.4-7.95-3.74Z"/>
  <path class="cls-1" d="M78.41,50.15c-.81,1.26-1.13,1.59-1.55,1.92-.7.54-1.99.75-2.33-.16-.55-1.49,1.96-3.96,3.23-3.9.57.03,1.38,1.01.65,2.14Z"/>
  <path class="cls-1" d="M579.52,73.8c-3.87-2.92,4.88-12.21,1.05-12.16-1.65.02-2.76,1.3-4.21.86-.95-.29-3.55-7.47-15.86.74-3.39,2.26-19.82,13.81-22.86,11.58-3.05-2.23,2.41-8.97,1.4-12.95-2.09-8.19-21.9,9.03-25.31,11.08-.66-4.33,10.22-14,4.9-13.9-.56.01-21.63,21.22-34.05,15.87-1.82-.78-2.15-3.13-1.89-4.55.53-2.96,13.54-1.34,12.08-8.69-.69-3.46-5.69-2.52-8.11-.94-4.03,2.63-24.21,17.12-26.9,12.59-1.53-3.67,2.27-7.13,2.37-10.93.15-5.45-15.87,10.61-19.18,11.27-3.99-3.92,5.72-11.37,3.48-14.68-12.15,6.87-11.65,9.23-27.12,11.78-1.69-1.89,4.43-7.13,1.42-10.31-5.64-5.96-16.92,5.72-22.7,9.27,6.61-14.67,15.77-27.69,24.87-40.96.69-1.01.64-2.13-.03-2.66-3.3-2.57-21.46,28.85-25.09,33.76-3.46,4.67-28.84,24.48-33.3,16.53-2.13-3.8-.02-13.83,3.95-16.03,12.6-6.99,24.11-14.24,31.21-26.6,1.91-3.33,2.65-8.72-1.97-9.82-3.29-.79-6.91,2.13-9.47,3.98-12,8.66-18.76,20.9-26.07,33.28-3.3,3.7-18.78,16.57-23.39,12.41-3.64-3.28,4.89-11.77.81-12.06-1.25-.09-3.1,1.96-4.13.72-2.16-2.6-4.74-3.84-8.12-2.55-11.13,4.24-16.31,15.62-12.51,17.76,5.18,2.92,13.1-4.4,18.66-7.94.9,3.03,1.29,5.62,3.08,6.65,7.37,4.27,16.25-4.1,23.26-8.64.12,4.8-.91,8.23,2.04,10.99,7.55,7.06,24.28-4.9,31.79-11.08,1.51.65-6.7,13.83-2.72,13.06.27-.05,1.01,0,1.46-.37l6.81-5.7c-4.29,3.59,19.67-20.05,18.45-11.63-1.62,11.09-13.93,7.6-17.77,11.57.2.29-.04,1.88.65,2.16,3.34,1.38,7.2.55,10.36-1.24,8.2-4.64,15.81.22,27.9-8.82,1.92.45-2.23,5.72.16,8.22,4.39,4.59,12.29-3.86,16.68-6.54.66,3.04.02,5.58,1.96,7.3,4.9,4.34,15.05-2.72,21.03-5.88.49,4.79,2.88,7.88,7.28,8.67,10.43,1.89,15.53-3.9,23.91-7.61-3.53,17.42,17.67-7.67,25.48-8.96,2.55,2.82-4.47,9.31-.77,13.71,4.68,5.57,14.92-2.59,20.19-4.23.09,2.22-.57,4.19.05,5.3,3.32,5.97,15.45-4.63,19.84-6.97.61,3.11.69,5.69,2.74,6.75,8.64,4.47,24.76-8.92,28.84-15.25-6.66.48-17.83,16.28-26.6,12.78ZM488.78,62.48c.69-.39,2.56-1.18,2.71.14-.3,1.69-2.81,3.25-4.31,2.35-1.03-.97.79-2.04,1.6-2.49ZM397.72,27.36c-.02,9.4-19.19,24.83-28.2,28.29-.09-4.94,24.2-33.88,28.2-28.29ZM331.49,67.38c-4.68,2.81-8.63,6.78-14.6,8.15-1.37-3.9,12.89-17.84,15.49-11.88.41.94.46,2.92-.9,3.73ZM573.1,66.53c-4.81,3.37-9.19,7.35-15.62,9.15-.51-4.59,12.18-16.91,15.33-12.53.47.65,1.32,2.66.29,3.38Z"/>
  <path class="cls-1" d="M199.07,59.38c-2.59-5.21-8.36,2.81-11.11,3.09-.88-1.29-1.54-2.5-2.53-2.22-1.77.5-15.26,11.18-26.2,8.54.76-3.74,1.75-6.11.24-8.18-1.24-1.7-3.4-3.33-6-2.4-8.97,3.2-15.86,15.56-9.52,19.73,5.71,3.76,11.23-3.78,14.45-5.36,6.94-.91,13.53-.75,20.23-5.15,1.2,2.09-4.7,9.28-1.76,10.23,2.39.77,13.94-14.36,18.3-16.74l5.84,3.57c4.35,2.66,11.26.99,15.66-2.93-3.99-2.12-14.44,4.17-17.6-2.19ZM146.01,76.04c-2.9-1.69-.4-7.06,1.84-8.5,2,1.15,3.06,2.2,5.45,4.48-.64,2.11-4.73,5.51-7.29,4.02ZM154.55,68.55c-2.65-.2-3.29-2.95-2.94-4.47.49-2.12,3.9-4.02,4.99-1.02.79,2.16-.5,5.61-2.05,5.49Z"/>
</svg>