<?xml version="1.0" encoding="UTF-8"?>
<svg id="Capa_1" data-name="Capa 1" xmlns="http://www.w3.org/2000/svg" viewBox="0 0 471.63 299.43">
  <defs>
    <style>
      .cls-1 {
        fill: #fff;
      }

      .cls-2 {
        fill: #3599fe;
      }
    </style>
  </defs>
  <g>
    <g>
      <path class="cls-1" d="M31.1,229.66c1.06-2.22-.05-4.34-1.48-4.34v-.46h7.29s0,.46,0,.46c-1.52,0-4.02,2.08-5.12,4.34l-13.2,27.51h-.79l-12.47-27.51c-1.06-2.31-3.19-4.34-4.71-4.34v-.46h12.75v.46c-1.43,0-2.45,2.03-1.48,4.34l9.01,21.6,10.2-21.6Z"/>
      <path class="cls-1" d="M18.98,257.8h-1.58l-12.64-27.88c-1.07-2.34-3.04-3.97-4.14-3.97h-.62v-1.71h13.99v1.71h-.62c-.44,0-.73.34-.87.54-.38.57-.59,1.64-.04,2.94l8.47,20.31,9.6-20.33c.57-1.19.38-2.25.01-2.84-.25-.39-.58-.61-.93-.61h-.62v-1.71h8.54s0,1.71,0,1.71h-.62c-1.17,0-3.51,1.84-4.56,3.99l-13.36,27.86ZM2.74,225.49c1.28.89,2.47,2.42,3.16,3.92l12.3,27.14,2.26-4.7-.13-.33-9.01-21.6c-.62-1.47-.56-3.05.15-4.12.07-.11.15-.21.23-.3H2.74ZM31.3,225.49c.11.12.21.25.3.4.37.58.55,1.29.54,2.02.74-.98,1.67-1.85,2.58-2.43h-3.43Z"/>
    </g>
    <g>
      <path class="cls-1" d="M50.08,252.38c0,2.4,1.29,4.34,2.81,4.34v.46h-11.36v-.46c1.43,0,2.77-1.94,2.81-4.34v-22.72c0-2.4-1.39-4.34-2.82-4.34v-.46h11.36v.46c-1.52,0-2.81,1.94-2.81,4.34v22.72Z"/>
      <path class="cls-1" d="M53.52,257.8h-12.61v-1.71h.62c1,0,2.15-1.59,2.19-3.72v-22.71c0-2.09-1.18-3.71-2.2-3.71h-.62v-1.71h12.61v1.71h-.62c-1.17,0-2.19,1.73-2.19,3.71v22.72c0,1.98,1.03,3.71,2.2,3.71h.62v1.71ZM43.36,256.55h7.68c-.95-.88-1.58-2.43-1.58-4.18v-22.72c0-1.75.62-3.29,1.58-4.18h-7.67c.96.89,1.61,2.45,1.61,4.18v22.72c-.03,1.75-.67,3.29-1.61,4.18Z"/>
    </g>
    <g>
      <path class="cls-1" d="M63.2,240.6c0,8.72,4.43,14.17,11.31,14.17,4.44,0,8.86-2.44,10.58-6.46l.37.23c-1.94,6.09-7.66,9.19-13.43,9.19-8.58,0-14.59-6.32-14.59-15.6,0-9.37,6.09-17.73,17.72-17.73,3.69,0,5.22.83,6.83.83.79,0,1.48-.14,2.03-.55h.51v11.5h-.46c-.27-4.8-2.58-11.27-9.42-11.27-7.2,0-11.45,7.16-11.44,15.7Z"/>
      <path class="cls-1" d="M72,258.35c-4.33,0-8.22-1.6-10.96-4.52-2.78-2.96-4.24-7.01-4.24-11.71,0-4.96,1.65-9.51,4.66-12.8,3.32-3.63,8.05-5.55,13.69-5.55,2.29,0,3.75.31,4.93.55,1.68.34,2.87.37,3.56-.16l.17-.12h1.34v12.75h-1.68l-.03-.59c-.1-1.79-1.01-10.68-8.79-10.68-3.21,0-5.94,1.51-7.91,4.38-1.88,2.74-2.91,6.54-2.91,10.7h0c0,8.35,4.1,13.55,10.68,13.55,4.44,0,8.45-2.44,10-6.08l.29-.68,1.39.88-.15.46c-1.86,5.85-7.37,9.62-14.03,9.62h-.01ZM68.89,225.98c-2.55.85-4.74,2.26-6.5,4.18-2.79,3.07-4.33,7.31-4.33,11.96,0,4.38,1.35,8.13,3.91,10.86,2.53,2.7,6,4.12,10.04,4.12h.01c4.16,0,7.82-1.59,10.26-4.28-2.12,1.62-4.87,2.57-7.77,2.57-7.25,0-11.93-5.81-11.93-14.8h0c0-4.41,1.11-8.46,3.13-11.41.92-1.34,1.99-2.41,3.19-3.21ZM79.28,225.43c2.32,1.32,3.8,3.64,4.62,6.26v-6.23c-1.02.49-2.46.41-4.07.08-.18-.04-.36-.08-.55-.11Z"/>
    </g>
    <g>
      <path class="cls-1" d="M109.42,256.66v.46h-11.41v-.46c1.43,0,2.82-1.94,2.82-4.39l.04-26.87h-5.45c-2.4,0-4.34,1.3-4.34,2.82h-.46v-3.37h26.22s0,3.36,0,3.36h-.46c0-1.52-.83-2.81-4.34-2.81h-5.45v26.87c0,2.45,1.39,4.39,2.82,4.39Z"/>
      <path class="cls-1" d="M110.04,257.75h-12.65v-1.71h.62c1.02,0,2.2-1.64,2.2-3.76l.04-26.24h-4.82c-2.19,0-3.71,1.16-3.71,2.2v.62h-1.71v-4.62h27.47s0,4.61,0,4.61h-1.71v-.62c0-.71,0-2.19-3.72-2.19h-4.82v26.24c0,2.12,1.18,3.76,2.2,3.76h.62v1.71ZM99.84,256.5h7.76c-.96-.9-1.61-2.48-1.61-4.23v-26.79h-4.48l-.04,26.79c0,1.75-.66,3.33-1.62,4.23ZM91.25,225.48v.88c.32-.34.72-.64,1.18-.88h-1.18ZM115.49,225.48c.28.16.52.34.73.55v-.55h-.73Z"/>
    </g>
    <g>
      <path class="cls-1" d="M137.63,224.3c9.92,0,16.57,6.64,16.58,16.8,0,10.2-6.74,16.53-16.66,16.53s-16.53-6.32-16.53-16.48c0-10.2,6.64-16.85,16.62-16.85ZM137.58,224.89c-6.56,0-10.85,6.32-10.85,16.25,0,9.88,4.25,15.93,10.81,15.93s10.94-6.05,10.94-15.97c0-9.88-4.35-16.21-10.9-16.21Z"/>
      <path class="cls-1" d="M137.54,258.25c-10.42,0-17.15-6.71-17.15-17.1,0-5.16,1.64-9.55,4.75-12.69,3.09-3.13,7.42-4.78,12.49-4.78,10.29,0,17.2,7,17.2,17.43,0,10.42-6.79,17.15-17.29,17.15ZM137.58,225.52c-3.01,0-5.55,1.43-7.36,4.13-1.87,2.79-2.86,6.77-2.86,11.5,0,9.44,3.9,15.3,10.18,15.3s10.32-6.03,10.32-15.35c0-9.47-4.04-15.58-10.28-15.58ZM142.38,225.49c4.19,2.35,6.72,7.97,6.72,15.61,0,7.42-2.45,12.9-6.55,15.29,6.84-1.8,11.02-7.41,11.02-15.29,0-8.11-4.27-13.85-11.2-15.61ZM132.74,225.53c-2.63.69-4.91,1.98-6.72,3.81-2.87,2.9-4.39,6.99-4.39,11.81,0,7.8,4.1,13.37,10.79,15.2-3.99-2.37-6.32-7.76-6.32-15.2,0-4.98,1.06-9.2,3.07-12.2,1-1.49,2.2-2.63,3.56-3.42Z"/>
    </g>
    <g>
      <path class="cls-1" d="M158.27,257.17v-.46c1.43,0,2.81-1.94,2.81-4.34l.04-22.72c0-2.4-1.38-4.34-2.81-4.34v-.46h17.45c6.28,0,10.66,2.81,10.66,8.4,0,5.22-3.83,8.5-9.69,9.38l5.82,9.6c1.29,2.12,3.69,4.47,5.22,4.47v.46h-13.16s0-.46,0-.46c1.43,0,2.68-2.31,1.48-4.34l-5.59-9.51h-3.69v9.6c0,2.35,1.38,4.25,2.81,4.25v.46h-11.36ZM166.85,225.45l-.04,16.66h7.01c3.74,0,6.88-3.74,6.88-8.72s-2.91-7.94-6.56-7.94h-7.29Z"/>
      <path class="cls-1" d="M173.99,257.79v-1.71h.62c.37,0,.75-.29,1.02-.75.36-.62.52-1.64-.08-2.64l-5.4-9.2h-2.71v8.98c0,2.04,1.18,3.62,2.19,3.62h.62v1.71h-12.61v-1.71h.62c1.01,0,2.19-1.62,2.19-3.71l.04-22.72c0-2.09-1.18-3.71-2.19-3.71h-.62v-1.71h18.08c7.07,0,11.29,3.37,11.29,9.03,0,5.04-3.46,8.67-9.31,9.83l5.34,8.82c1.33,2.18,3.56,4.17,4.68,4.17h.62v1.71h-14.41ZM160.1,256.54h7.68c-.95-.88-1.59-2.4-1.59-4.09l.04-26.99h-6.09c.96.89,1.61,2.45,1.61,4.18l-.04,22.72c0,1.73-.65,3.28-1.61,4.18ZM171.16,242.74l5.47,9.31c.87,1.46.61,2.97.09,3.9-.13.22-.27.42-.44.6h9.41c-1.44-.98-2.86-2.66-3.67-3.99l-6.15-10.15c-.65.22-1.33.34-2.05.34h-2.66ZM177.13,225.52c2.55,1.28,4.2,4.2,4.2,7.87,0,3.9-1.82,7.16-4.48,8.58,5.69-.91,8.95-4.09,8.95-8.72s-3.14-7.35-8.67-7.73ZM167.44,241.49h6.39c3.51,0,6.25-3.56,6.25-8.1,0-4.24-2.5-7.31-5.94-7.31h-6.67l-.04,15.41Z"/>
    </g>
    <g>
      <path class="cls-1" d="M240.41,229.64c1.07-2.22-.04-4.34-1.47-4.34v-.46h7.29v.46c-1.52,0-4.02,2.08-5.12,4.34l-13.2,27.52h-.79l-12.47-27.52c-1.06-2.3-3.19-4.34-4.71-4.34v-.46h12.74s0,.46,0,.46c-1.43,0-2.44,2.03-1.47,4.34l9.01,21.61,10.19-21.61Z"/>
      <path class="cls-1" d="M228.3,257.79h-1.58l-12.64-27.89c-.97-2.12-2.91-3.97-4.14-3.97h-.62v-1.71h13.99s0,1.71,0,1.71h-.62c-.44,0-.73.33-.86.53-.38.57-.59,1.64-.04,2.94l8.47,20.31,9.59-20.34c.58-1.19.38-2.24.02-2.83-.25-.39-.58-.61-.93-.61h-.62v-1.71h8.54v1.71h-.62c-1.17,0-3.51,1.85-4.56,3.99l-13.36,27.87ZM212.06,225.47c1.28.89,2.47,2.42,3.15,3.91l12.3,27.15,2.26-4.7-.13-.33-9.01-21.61c-.62-1.47-.56-3.05.15-4.11.08-.11.15-.21.24-.31h-8.95ZM240.6,225.46c.11.12.22.26.31.41.37.58.55,1.29.54,2.02.74-.98,1.67-1.85,2.58-2.43h-3.43Z"/>
    </g>
    <g>
      <path class="cls-1" d="M247.16,257.16h-7.29s0-.46,0-.46c1.52,0,4.06-2.08,5.17-4.34l13.2-27.51h.74l12.47,27.51c1.07,2.31,3.19,4.34,4.71,4.34v.46h-12.74v-.46c1.43,0,2.44-2.03,1.47-4.34l-3.83-9.28h-10.99l-4.39,9.28c-1.07,2.22.04,4.34,1.47,4.34v.46ZM260.82,242.52l-4.9-11.77-5.58,11.77h10.48Z"/>
      <path class="cls-1" d="M239.24,257.79v-1.71h.62c1.19,0,3.56-1.85,4.61-3.99l13.36-27.86h1.53l12.64,27.88c.97,2.12,2.91,3.97,4.14,3.97h.62v1.71h-13.99v-1.71h.62c.44,0,.73-.33.87-.53.37-.57.58-1.64.03-2.94l-3.68-8.9h-10.17l-4.22,8.92c-.58,1.19-.38,2.24-.02,2.83.25.39.58.61.93.61h.62v1.71h-8.54ZM244.64,254.16c-.74.96-1.66,1.8-2.57,2.38h3.41c-.11-.13-.22-.26-.31-.41-.36-.57-.54-1.25-.54-1.96ZM265.08,256.53h8.96c-1.28-.89-2.47-2.42-3.16-3.91l-12.28-27.09-2.23,4.65,9.1,21.94c.62,1.47.57,3.04-.15,4.11-.07.11-.15.21-.24.31ZM251.33,241.9h8.55l-4-9.61-4.55,9.61Z"/>
    </g>
    <g>
      <path class="cls-1" d="M292.17,224.74v.46c-1.43,0-2.81,1.99-2.81,4.39v26.96h11.41c2.4,0,4.34-1.29,4.34-2.82h.46v3.37h-24.75v-.46c1.43,0,2.81-1.98,2.81-4.39l-.05-22.66c0-2.4-1.39-4.39-2.81-4.39v-.46h11.4Z"/>
      <path class="cls-1" d="M306.19,257.73h-26v-1.71h.62c1.01,0,2.19-1.64,2.19-3.76l-.05-22.66c0-2.12-1.18-3.76-2.19-3.76h-.62v-1.71h12.65v1.71h-.62c-1.01,0-2.19,1.64-2.19,3.76v26.34h10.79c1.98,0,3.71-1.03,3.71-2.2v-.62h1.71v4.62ZM303.75,256.48h1.19v-.89c-.32.34-.72.64-1.19.89ZM282.64,256.48h6.09v-26.89c0-1.75.65-3.33,1.61-4.23h-7.78c.97.91,1.64,2.5,1.64,4.23l.05,22.66c0,1.75-.65,3.33-1.61,4.23Z"/>
    </g>
    <g>
      <path class="cls-1" d="M309.63,257.15v-.46c1.43,0,2.81-1.94,2.81-4.34l.04-22.71c0-2.4-1.38-4.34-2.81-4.34v-.46h16.07c5.78,0,9.28,2.12,9.28,5.58,0,5.26-8.22,6.93-9.7,6.93,7.34,0,12.42,2.95,12.43,9.46,0,7.07-6.01,10.34-13.44,10.34h-14.68ZM318.21,225.43l-.04,11.59h4.34c3.32,0,6.79-2.58,6.79-6.32,0-3.05-2.36-5.26-5.64-5.26h-5.45ZM318.17,237.76v18.84h5.45c4.25,0,8.4-4.66,8.4-9.51s-4.02-9.33-9.33-9.33h-4.52Z"/>
      <path class="cls-1" d="M324.31,257.77h-15.3v-1.71h.62c1.01,0,2.19-1.62,2.19-3.71l.04-22.71c0-2.09-1.18-3.72-2.19-3.72h-.62v-1.71h16.69c6.11,0,9.91,2.38,9.91,6.21,0,3.51-3.26,5.59-6.19,6.65,5.72,1.07,8.91,4.48,8.92,9.74,0,6.77-5.39,10.97-14.06,10.97ZM311.46,256.53h6.09v-18.88s.04-12.19.04-12.19h-6.08c.96.89,1.6,2.45,1.6,4.18l-.04,22.71c0,1.73-.65,3.28-1.61,4.18ZM326.7,238.01c3.47,1.58,5.95,5.1,5.95,9.08s-2.48,7.67-5.68,9.3c6.41-.73,10.16-4.19,10.16-9.58,0-6.93-6.02-8.55-10.43-8.8ZM318.8,255.97h4.82c3.92,0,7.78-4.4,7.78-8.89,0-4.2-3.5-8.7-8.71-8.7h-3.9v17.59ZM324.62,237.33c.24.05.47.1.7.17v-.41c-.23.09-.46.18-.7.25ZM326.71,225.48c1.96.96,3.21,2.86,3.21,5.22,0,2.65-1.56,4.74-3.61,5.92,2.55-.44,8.09-2.27,8.09-6.2,0-2.91-2.85-4.73-7.69-4.94ZM318.8,236.4h3.71c2.98,0,6.16-2.29,6.16-5.7,0-2.69-2.11-4.64-5.01-4.64h-4.82l-.04,10.34Z"/>
    </g>
    <g>
      <path class="cls-1" d="M366.93,247.31c0,6.84-6.28,10.39-12.37,10.39-5.72,0-11.31-3.14-11.31-9.56v-18.52c0-2.4-1.39-4.34-2.82-4.34v-.46h11.36v.46c-1.52,0-2.81,1.94-2.81,4.34v19.53c0,5.22,3.42,7.52,7.25,7.52,4.8,0,10.16-3.61,10.16-9.61v-17.45c0-2.4-1.39-4.34-2.82-4.34v-.46h6.19v.46c-1.52,0-2.82,1.94-2.82,4.34v17.68Z"/>
      <path class="cls-1" d="M354.55,258.33c-5.75,0-11.93-3.19-11.93-10.18v-18.52c0-2.09-1.18-3.71-2.2-3.71h-.62v-1.71h12.61v1.71h-.62c-1.17,0-2.19,1.73-2.19,3.71v19.53c0,5.09,3.42,6.9,6.63,6.9,4.59,0,9.53-3.43,9.53-8.98v-17.45c0-2.09-1.18-3.72-2.2-3.72h-.62v-1.71h7.44v1.71h-.62c-1.04,0-2.2,1.53-2.2,3.72v17.68c0,7.23-6.53,11.02-12.99,11.02ZM342.26,225.45c.96.89,1.61,2.45,1.61,4.18v18.52c0,5.97,5.25,8.78,10.27,8.93-2.99-.71-5.79-3.03-5.79-7.91v-19.53c0-1.75.62-3.29,1.58-4.18h-7.67ZM365.39,225.45c.53.5.97,1.2,1.25,2.02.28-.82.71-1.52,1.24-2.02h-2.49Z"/>
    </g>
    <g>
      <path class="cls-1" d="M377.55,252.34l.04-22.71c0-2.4-1.38-4.34-2.81-4.34v-.46h24.24s0,3.27,0,3.27h-.46c0-1.52-1.94-2.81-4.34-2.81h-10.9l-.04,15.42h6.56c2.4,0,4.38-1.29,4.38-2.81h.46v6.18s-.45,0-.45,0c0-1.52-1.99-2.81-4.39-2.81h-6.56v15.38l10.94-.05c2.4,0,4.34-1.29,4.34-2.81h.46v3.37h-24.28v-.46c1.43,0,2.81-1.94,2.81-4.34Z"/>
      <path class="cls-1" d="M399.65,257.77h-25.53v-1.71h.62c1.01,0,2.19-1.62,2.19-3.71l.04-22.71c0-2.09-1.18-3.72-2.19-3.72h-.62v-1.71h25.49s0,4.52,0,4.52h-1.71v-.62c0-1.17-1.73-2.19-3.71-2.19h-10.27l-.04,14.17h5.93c2.21,0,3.76-1.16,3.76-2.19v-.62h1.71v7.43s-1.7,0-1.7,0v-.62c0-1.03-1.54-2.19-3.76-2.19h-5.93v14.12l10.31-.04c1.99,0,3.72-1.02,3.72-2.19v-.62h1.71v4.62ZM397.21,256.52h1.19v-.89c-.32.34-.72.64-1.19.89ZM376.57,256.52h6.09l.04-31.07h-6.08c.96.89,1.6,2.45,1.6,4.18l-.04,22.71c0,1.73-.65,3.28-1.61,4.18ZM392.03,240.98c.82.28,1.53.71,2.02,1.24v-2.48c-.5.53-1.2.96-2.02,1.24ZM397.37,225.45c.4.23.74.5,1.02.8v-.8h-1.02Z"/>
    </g>
    <g>
      <path class="cls-1" d="M404.01,224.82h8.35l15.98,21.93.04-17.13c0-2.4-1.29-4.34-2.81-4.34v-.46h6.37v.46c-1.52,0-2.81,1.94-2.81,4.34l-.04,27.51h-.74l-20.73-29.91-.04,25.12c0,2.4,1.29,4.34,2.81,4.34v.46h-6.37v-.46c1.52,0,2.81-1.94,2.81-4.34v-22.72c0-2.4-1.3-4.34-2.82-4.34v-.46Z"/>
      <path class="cls-1" d="M411.01,257.77h-7.62v-1.71h.62c1.17,0,2.19-1.73,2.19-3.71v-22.72c0-1.98-1.03-3.71-2.2-3.71h-.62v-1.71h9.3l15.04,20.64.04-15.22c0-1.98-1.02-3.72-2.19-3.72h-.62v-1.71h7.62v1.71h-.62c-1.17,0-2.19,1.74-2.19,3.72l-.04,28.14h-1.69l-.18-.27-19.6-28.28-.04,23.13c0,1.98,1.02,3.71,2.19,3.71h.62v1.71ZM405.87,256.52h2.65c-.59-.55-1.05-1.35-1.33-2.3-.27.95-.73,1.75-1.32,2.3ZM407.14,225.45l.98,1.42,20.33,29.34.02-8.22-16.43-22.54h-4.9ZM427.44,225.45c.59.55,1.05,1.35,1.32,2.29.27-.94.74-1.74,1.32-2.29h-2.64ZM405.87,225.45c.46.43.85,1.01,1.12,1.69v-1.69h-1.12Z"/>
    </g>
    <g>
      <path class="cls-1" d="M442.01,257.14h-7.29v-.46c1.52,0,4.06-2.08,5.17-4.34l13.2-27.51h.74s12.47,27.51,12.47,27.51c1.07,2.31,3.19,4.34,4.71,4.34v.46h-12.74v-.46c1.43,0,2.44-2.03,1.47-4.34l-3.83-9.28h-10.99s-4.39,9.28-4.39,9.28c-1.07,2.22.04,4.34,1.47,4.34v.46ZM455.68,242.5l-4.9-11.77-5.58,11.77h10.48Z"/>
      <path class="cls-1" d="M471.63,257.76h-13.99v-1.71h.62c.44,0,.73-.33.87-.53.37-.57.58-1.64.03-2.94l-3.68-8.9h-10.17s-4.22,8.93-4.22,8.93c-.58,1.19-.38,2.24-.02,2.83.25.39.58.61.93.61h.62v1.71h-8.54v-1.71h.62c1.19,0,3.56-1.84,4.61-3.99l13.36-27.86h1.53s.17.36.17.36l12.47,27.52c.97,2.12,2.91,3.97,4.14,3.97h.62v1.71ZM459.93,256.52h8.96c-1.28-.89-2.47-2.42-3.16-3.91l-12.28-27.09-2.23,4.66,9.1,21.94c.62,1.47.57,3.04-.15,4.11-.07.11-.15.21-.24.31ZM436.92,256.52h3.41c-.11-.12-.22-.26-.31-.41-.36-.57-.54-1.25-.54-1.96-.74.96-1.66,1.8-2.57,2.37ZM450.74,232.27l-4.55,9.61h8.55s-4-9.61-4-9.61Z"/>
    </g>
  </g>
  <g>
    <path class="cls-1" d="M148.51,299.1l-1.37-3.95h-8.35l-1.37,3.95h-3.18l6.46-18.66h4.53l6.44,18.66h-3.15ZM142.95,283.03l-3.28,9.56h6.58l-3.3-9.56Z"/>
    <path class="cls-1" d="M170.12,289.77c0-5.71,5.01-9.66,10.3-9.66,2.77,0,5.32,1.02,7.17,2.7l-1.87,2.12c-1.32-1.39-3.2-2.26-5.3-2.26-4,0-7.27,3.19-7.27,7.1s3.27,7.1,7.27,7.1c1.66,0,3.19-.55,4.42-1.47v-4.36h-5.83v-2.56h8.86v7.97c-2.01,1.96-4.71,2.98-7.45,2.98-5.92,0-10.3-4.52-10.3-9.66Z"/>
    <path class="cls-1" d="M209.04,299.1v-18.66h14.51v2.56h-11.47v5.73h9.87v2.57h-9.87v5.24h11.47v2.56h-14.51Z"/>
    <path class="cls-1" d="M258.09,299.1l-10.33-14.42v14.42h-3.04v-18.66h3.58l10.3,14.4v-14.4h3.04v18.66h-3.55Z"/>
    <path class="cls-1" d="M282.5,289.77c0-5.71,5.01-9.66,10.32-9.66,2.76,0,5.31,1.02,7.16,2.7l-1.85,2.12c-1.34-1.39-3.22-2.26-5.31-2.26-4.02,0-7.28,3.19-7.28,7.1s3.27,7.1,7.28,7.1c2.15,0,4.07-.92,5.41-2.38l2.04,1.96c-1.87,1.81-4.5,2.98-7.45,2.98-5.91,0-10.32-4.52-10.32-9.66Z"/>
    <path class="cls-1" d="M327.1,299.1v-8.95l-.25-.41-6.66-9.3h3.55l4.89,6.82,4.87-6.82h3.55l-6.65,9.3-.26.42v8.93h-3.04Z"/>
  </g>
  <g>
    <path class="cls-1" d="M299.14,24.73c5.46-11.41-.24-22.35-7.61-22.35V0h37.56v2.38c-7.85,0-20.68,10.7-26.39,22.35l-67.99,141.7h-4.04L166.47,24.73c-5.47-11.88-16.41-22.35-24.25-22.35V0h65.62v2.38c-7.37,0-12.61,10.46-7.61,22.35l46.36,111.27,52.54-111.27Z"/>
    <path class="cls-2" d="M192.47,146.81c-7.07-2.99-10.68-9.74-10.68-20.26,0-15.08,4.09-31.58,12.26-49.65.94-1.88,2.04-2.83,3.3-2.98.79,0,1.57.79,2.67,2.36.94,1.57,1.42,3.14,1.42,4.55,0,1.88-.79,2.99-2.2,3.46-2.36,1.57-5.66,9.27-9.74,22.94-1.25,7.7-1.57,15.24-.94,22.46.47,7.38,2.83,11,6.75,11.16,3.14,0,12.26-12.57,27.34-37.86,4.09-6.92,7.7-12.89,11-17.91,8.01-13.04,12.09-19.95,12.09-20.89q0-.16-.16-.16c5.03.16,7.54,1.26,7.54,3.46,0,1.1-.63,2.51-1.88,4.24-3.61,9.9-4.4,17.28-2.05,21.84,2.2,4.56,5.66,6.13,10.53,4.56,4.87-1.42,14.45-5.66,28.91-12.57,2.04-1.89,4.08-2.83,6.44-2.83,1.1,0,1.57.47,1.57,1.57-5.18,6.91-15.87,12.89-32.2,18.07-3.77,1.25-7.07,1.88-9.9,1.88-8.33,0-12.57-7.23-12.41-21.52-9.27,14.61-18.07,28.59-26.23,41.79-9.74,15.55-16.5,23.41-20.43,23.41-1.1,0-2.2-.31-2.98-1.1Z"/>
  </g>
</svg>