<?xml version="1.0" encoding="UTF-8"?>
<svg id="Capa_1" data-name="Capa 1" xmlns="http://www.w3.org/2000/svg" viewBox="0 0 391.02 304.64">
  <defs>
    <style>
      .cls-1 {
        fill: #fff;
      }
    </style>
  </defs>
  <path class="cls-1" d="M353.71,0v177.93c0,.1-.89.99-1.11.84-.02-.97-.82-1.61-1.22-2.41-28.13-56.29-47.22-116.88-72.04-174.66l-.25-1.69h74.62Z"/>
  <path class="cls-1" d="M285.77,82.98h-16.15v12.81h21.72l33.41,84.09h-91.89c-.19-1,.25-1.11.97-1.54,2.35-1.4,6.11-2.37,8.88-3.93,31.66-17.8,34.19-65.62,0-81.51-4.63-2.15-9.75-3.08-14.3-5.18,15.6-9,28.8-18.24,30.09-37.84,1.56-23.73-11.22-38.17-32.59-45.98-2.18-.8-7.2-1.63-8.65-2.49-.92-.55.06-1.4.29-1.4h35.08l33.14,82.98Z"/>
  <polygon class="cls-1" points="74.15 0 156.57 179.88 126.78 179.88 44.08 0 74.15 0"/>
  <path class="cls-1" d="M158.24,169.85v-76.85l13.11-.02,3.85.61c27-2.07,59.38,2.06,61.59,35.31,2.1,31.6-20.23,39.78-47.61,40.98l-30.93-.02Z"/>
  <path class="cls-1" d="M158.24,11.69h32.57c25.62,1.92,44.02,16.46,38.56,44.12-6.49,32.87-42.17,25.57-66.99,26.03-1.4.03-2.83.13-4.15.57V11.69Z"/>
  <path class="cls-1" d="M165.76,201.04c.78.13,3.44,1.37,4.2,1.93,6.28,4.58,4.93,17.19-2.8,19.51l9.51,16.69,1.59.34.03,1.63h-9.19l-9.42-17.87-1.99-.51v13.64c0,1.94,2.47,3.73,4.46,3.06v1.67h-15.6v-1.67s3.38-.24,3.38-.24l.55-1.68-.02-33.44-.53-1.14c-1.01-.61-3.58.36-3.37-1.92,5.84.66,13.62-.9,19.21,0ZM157.69,220.53c8.17,1.51,10.11-6.5,8.09-12.82-1.32-4.13-4.26-4.14-8.09-3.89v16.71Z"/>
  <path class="cls-1" d="M353.15,217.19c-.07,1.63-1.74,1.81-2.7,3.14-2.14,2.93-2.83,8.18-5.56,11.06,1.5,1.54,4.19,5.23,6.61,3.92,1.07-.58.88-2.99,2.77-1.7-2.2,7.84-9.01,12.04-13.93,3.63-17.09,14.86-27.69-10.05-10.63-18.44-.5-5.58-2.11-13.38,3.21-17.11,8.5-5.96,15.53,5.5,8.56,12.46-1.27,1.27-3.41,1.78-4.4,3.39-.17.92,4.85,9.8,5.81,10.75.46.46.5.79,1.35.59.84-2.56,3.66-6.42,2.13-9.07-.67-1.16-2.29-1.09-2.12-2.62h8.91ZM335.9,214.96c5.12-1.86,4.63-9.31.74-12.15-4.26-.86-1.84,9.96-.74,12.15ZM330.87,220.53c-8,3.57-.23,22.29,7.79,14.76-3.46-4.2-6.19-9.51-7.79-14.76Z"/>
  <path class="cls-1" d="M91.05,300.53c-9.97-9.52-7.78-37.28,8.46-38.25,19.77-1.18,22.05,35.31,5.59,41.25-4.76,1.72-10.37.5-14.04-3.01ZM99.05,265.19c-6.77,1.54-6.35,18.2-5.99,23.58.29,4.36,1.79,13.07,7.54,13.1,7.31.03,7.7-15.87,7.54-20.94-.17-5.33-1.19-17.53-9.1-15.74Z"/>
  <path class="cls-1" d="M302.48,201.04c.01,3.3-.09,6.61-.16,9.87-.01.54.34,2.38-.68,2.37-.75,0-1.17-4.67-1.84-5.95-1.85-3.57-5.91-3.84-9.56-3.83-.65,0-.71.04-1.13.61v15.31c5.5.43,5.14-5.58,6.13-9.47.21-.16,1.11.73,1.11.83v20.05c0,.1-.9.99-1.11.83-1-3.88-.64-9.9-6.13-9.47v14.76c0,2.38,7.9,1.27,9.68.21,2.11-1.24,4.35-6.35,4.24-8.85h1.67s-1.67,12.81-1.67,12.81h-25.06v-1.67c2.82.38,3.5-.44,3.85-3.12.89-6.87.56-21.74.07-28.93-.07-1.1-.15-3.37-.85-4.16-.83-.93-3.34-.15-3.07-2.22h24.5Z"/>
  <path class="cls-1" d="M257.93,263.41v11.69c-1.67.28-.88-.45-1.17-1.31-2.57-7.6-3.46-8.27-12.2-8.16v16.15c5.37.22,5.12-4.39,6.05-8.17.24-.99-.39-1.54,1.19-1.29v21.72c-1.66.25-.92-.37-1.12-1.36-.39-1.87-.76-5.63-1.95-6.98-.68-.77-4.16-2.24-4.16-.85v12.81c0,3.38,3.11,3.33,5.85,3.06,5.79-.56,7.55-5.75,8.9-10.58.93.67.87,1.4.8,2.42-.23,3.52-1.69,7.21-1.08,10.94h-25.62v-1.67c3.7.57,4.06-1.69,4.39-4.8.72-6.79.52-18.62.09-25.58-.13-2.09-.21-5.18-2.04-6.31-1.1-.68-2.83-.11-2.44-1.74h24.5Z"/>
  <path class="cls-1" d="M66.36,201.04l13.09,23.39c1.24-1.18.26-2.77.26-4.15-.02-4.4.62-10.98-.01-15.03-.57-3.69-3.35-1.42-3.86-4.21h10.02c.2,1.8-3.9,2.15-3.9,4.18v37.03l-1.27-.71-19.34-32.15v26.45c0,1.85,2.22,4.55,4.46,3.62v1.67h-10.59c-.17-2.1,2.29-1.29,3.38-2.47.51-.55.92-2.08,1.03-2.87.82-6.2.66-21.97.07-28.38-.19-2.1-.55-3.11-2.28-4.41-1-.75-2.58-.44-2.2-1.97h11.14Z"/>
  <path class="cls-1" d="M222.84,201.04l13.37,22.83v-19.21c0-2.3-4.41-1.71-3.9-3.62h10.02c.2,1.8-3.9,2.15-3.9,4.18v37.03l-1.27-.71-19.34-32.15v26.45c0,1.85,2.22,4.55,4.46,3.62v1.67h-10.03v-1.67c2.97.29,3.69-1.52,3.92-4.15.82-9.19-.64-19.63-.06-28.96-.07-2.74-3.44-3.09-3.87-5.32h10.58Z"/>
  <path class="cls-1" d="M129.28,201.04c.19,1.24,0,.89-.71,1.24-1.25.61-2.98.53-3.17,2.39.68,9.07-.95,19.5-.01,28.39.77,7.29,9.11,7.95,11.73.59,1.67-4.69,1.63-21.87,1.02-27.26-.07-.64-.49-2.8-.76-3.14-.72-.91-3.38-.13-3.08-2.21h10.02c.19,1.24,0,.89-.71,1.24-1.25.61-2.98.53-3.17,2.39-.99,8.76,2.99,29.98-5.06,35.59-6.2,4.32-15.21,1.13-16.96-6.36-1.65-7.08.45-19.06-.34-26.95-.07-.69-.52-3.37-.74-3.71-.72-1.07-4.13-.14-3.64-2.2h15.59Z"/>
  <path class="cls-1" d="M265.17,289.03c1.59-.28.91.38,1.25,1.23,1.58,3.95,1.87,8.12,6.01,10.72,5.01,3.15,10-1.8,7.89-7.34-2.16-5.68-11.54-7.59-14.21-14.75-2.24-6.02-.18-14.93,6.82-16.36,4.19-.85,5.8,2.08,9.49,2.55.19-1.08.03-3.21,1.67-2.79v13.09c0,.13-.96,1.02-1.11.84.88-5.15-7.09-15.61-11.62-9.67-5.52,7.22,8.63,12.56,11.86,16.94,6.53,8.86.74,24.28-11.55,19.9-2.82-1.01-3.98-3.64-5.41,1.23-.22.15-1.11-.74-1.11-.84v-14.76Z"/>
  <path class="cls-1" d="M79.16,262.3v13.09c0,.12-.96,1.02-1.11.83-.64-3.59-2.93-10.44-7-11.11-5.87-.96-7.51,4.53-4.38,8.83,4.23,5.8,12.3,6.73,14.02,15.49,1.19,6.06-3.1,15.24-10.09,15.01-2.43-.08-6.13-2.62-7.34-2.59-1.94.04-1.25,2.59-3.05,2.22v-15.04c1.66-.25.92.37,1.12,1.36.85,4.12,3.6,11.47,8.62,11.51,3.99.03,5.77-2.73,5.58-6.48-.33-6.43-13.68-9.69-15.19-18.49-1.86-10.84,6.29-18.8,16.27-11.85.96-.22.76-3.21,2.53-2.78Z"/>
  <path class="cls-1" d="M108.68,213.85c-1.47.24-.99-.23-1.27-1.21-.65-2.31-.73-4.06-2.17-6.21-4.02-6.02-11.66-4.43-10.25,2.44,1.33,6.46,12.94,8.6,14.97,16.79,1.38,5.57-.11,13.16-5.91,15.6-5.76,2.42-8.13-1.69-11.24-1.26-1.46.21-1.75,2.23-2.24,2.25-1.26.05-.18-3.34-.23-4.17-.13-2.27-.64-4.18-.63-6.71,0-.58.15-4.73.86-4.7,1.14,1.99,1.05,4.02,2.03,6.31,1.65,3.85,4.42,7.33,9.1,6.48,1.03-.19,2.5-1.66,3-2.57,3.98-7.3-8.01-12.06-11.62-16.08-4.57-5.09-4.29-15.57,1.69-19.47,4.84-3.15,7.32.07,11.9,1.4.97-.08.12-3.41,2-2.82v13.92Z"/>
  <path class="cls-1" d="M34.61,289.03c1.52-.25.96.28,1.26,1.22.8,2.54,1.15,4.55,2.53,6.96,6.05,10.54,16.67,1.14,9.3-6.51-3.81-3.95-10.29-6.02-12.25-11.7-2.7-7.83,1.93-19.6,11.53-15.99,1.34.5,2.5,1.85,4.04,2.05.98-.22.74-3.22,2.53-2.77-1.04,3.9-.24,8-.27,11.88,0,.82.45,1.4-.56,2.04-1.04-2.99-1.53-6.09-3.62-8.63-5.63-6.88-14,1.05-6.72,7.82,4.03,3.74,9.95,5.77,12,11.4,3.35,9.23-2.6,20.28-13.24,16.58-3.76-1.31-2.86-3.08-6.52,1.23v-15.59Z"/>
  <path class="cls-1" d="M148.22,276.22c-2.12.12-1.5-2.29-2.1-3.74-2.2-5.27-7.05-9.91-12.66-5.73-6.89,5.14-7.26,28.85.09,33.34,6.1,3.73,10.66-1.74,14.11-6.04.85,4.97-3.96,8.7-8.33,9.76-20.2,4.92-25.1-28.73-10.57-38.97,6.21-4.38,10.53-1.92,16.87.19,1.51-.43.76-3.21,2.59-2.73v13.92Z"/>
  <path class="cls-1" d="M391.02,276.22c-1.24.2-.89,0-1.24-.71-.67-1.33-.91-3.07-1.61-4.51-3.73-7.66-11.15-7.79-14.9,0-2.94,6.11-2.97,18.48-.34,24.71,2.69,6.37,8.82,7.13,13.92,2.79l3.61-4.45c-.05,1.13.22,2.42-.1,3.51-.06.22-2.58,3.29-2.86,3.54-4.78,4.19-12.51,3.96-17.35.17-14.27-11.2-5.3-43.96,12.64-38.26,1.74.55,4.41,2.83,6.01,1.82,1.11-.7.46-3,2.22-2.53v13.92Z"/>
  <path class="cls-1" d="M273.52,199.92v13.92c-1.67.28-.88-.44-1.17-1.31-1.57-4.64-4.27-10.93-10.4-9.46-7.93,1.91-8.45,15.7-7.92,22.18,1.12,13.84,9.69,19.11,18.93,6.97.77,7.59-8.81,11.07-15.15,9.31-13.74-3.82-14.8-25.4-7.11-35.19,5.63-7.18,12.67-8.02,20.32-3.2l2.5-3.22Z"/>
  <path class="cls-1" d="M230.08,263.41v11.14c-1.67.28-.88-.45-1.17-1.31-1.62-4.8-1.88-8.12-8.3-7.6v34.25c0,1.51,2.61,2.15,3.9,1.95v1.67h-14.76c-.15,0-.56-.64-.83-.84-.01-.63,4.45-.9,4.45-3.9v-33.14c-5.69-.54-7.28,2.66-8.35,7.54-.21.97.57,1.63-1.12,1.37v-11.14h26.17Z"/>
  <path class="cls-1" d="M.08,303.51c-.48-2,1.19-1.76,2.24-3.05.83-1.02,1.32-2.47,1.93-3.64l11.15-34.52c1.2-.24.73.5.97,1.23,2.45,7.26,8.95,32.75,12.4,37.19.92,1.19,2.43.78,1.93,2.79h-13.92v-1.67s2.71-.07,2.71-.07c1.62-1.11-1.34-8.26-1.93-9.99-1.91.39-9.09-.66-9.98.57-.13.18-1.27,3.77-1.34,4.22-.45,2.89-.23,5.67,3.31,5.27v1.67H.08ZM9,289.58h7.8c-.92-3.67-2-7.44-3.2-11.03-.24-.73.22-1.47-.97-1.23l-3.62,12.25Z"/>
  <path class="cls-1" d="M169.94,303.51c-.46-2.06,1.69-2.05,2.79-3.62,4.42-6.3,8.56-27.32,11.97-35.92.19-.49.98-1.99,1.39-1.67l11.28,35.79c.8,1.83,1.32,3.85,3.74,3.78l.02,1.64h-14.48v-1.67c6.38.96,1.74-6.67,1.04-9.95h-9.88c-1.15,3.63-4.34,10.66,2.16,9.95v1.67h-10.03ZM186.64,289.58l-3.35-12.25c-.41-.32-1.19,1.18-1.39,1.67-1.26,3.2-2.24,7.21-3.06,10.58h7.8Z"/>
  <path class="cls-1" d="M178.85,241.13l.02-1.64,2.53-1.1c5.41-12.37,8.72-25.67,13.05-38.47.76.07.91.78,1.14,1.36,2.27,5.76,10.01,35.46,12.52,37.61.57.49,1.18.57,1.9.6l.03,1.63h-14.48c-.19-2,2.04-1.38,3.1-2.19.81-1.12-.82-7.91-1.56-8.82-1.05-1.31-7.76-.49-9.66-.49-1.93,3.05-4.9,10.6,1.43,9.83v1.67h-10.03ZM196.11,227.21l-4.18-12.81-4.18,12.81h8.35Z"/>
  <path class="cls-1" d="M347.59,263.41c.15,1.15.1.91-.7,1.25-1.95.82-3.26,0-3.72,2.96l.1,31.04c.21,1.71,1.39,1.92,2.92,2.06,9.11.84,9.04-3.48,11.37-10.38.29-.86-.5-1.6,1.17-1.31l-1.11,14.48h-25.62v-1.67c2.33.25,3.49-.09,3.86-2.54-.54-10.13.83-21.16.06-31.18-.24-3.17-.96-2.38-3.22-3.46-.72-.35-.9,0-.71-1.24h15.59Z"/>
  <path class="cls-1" d="M317.51,263.41l-3.93,2.48c-.55.74-.91,2.48-1.02,3.43-.76,6.3-.59,19.64-.08,26.13.43,5.55,2.03,5.96,7.49,5.22,5.39-.73,5.59-6.54,7.31-10.54.37-.87-.06-1.36,1.37-1.11l-1.11,14.48h-26.17v-1.67c4.3.79,4.26-3.09,4.48-6.38.46-6.95.65-19.36-.08-26.14-.08-.75-.69-3.39-1.01-3.88-.69-1.08-3.84-.03-3.39-2.02h16.15Z"/>
  <path class="cls-1" d="M52.99,201.04c.19,1.24,0,.89-.71,1.24-1.25.61-2.98.53-3.17,2.39.59,10.33-.82,21.55-.04,31.76.21,2.83,1.04,3.22,3.93,3.03v1.67h-15.6c.89-3.12,3.59-.25,3.93-4.7.57-7.61.87-24.45-.08-31.73-.06-.48-.31-1.66-.62-1.88-.79-.55-3.72.21-3.23-1.78h15.59Z"/>
  <path class="cls-1" d="M167.71,263.41c.43,1.92-2.32,1.26-3.36,1.93-.46.3-1.05,5.01-1.12,6.12-.42,6.84-.43,16.6,0,23.44.21,3.33.07,7.83,4.49,6.94v1.67h-15.6v-1.67c3.24.36,3.95-.79,4.13-3.83.5-8.16.49-21.7.05-29.88-.03-.59-.63-2.63-.97-2.92-.87-.73-3.65.1-3.21-1.8h15.59Z"/>
</svg>