<?xml version="1.0" encoding="UTF-8"?>
<svg id="Capa_1" data-name="Capa 1" xmlns="http://www.w3.org/2000/svg" viewBox="0 0 292.61 304.64">
  <defs>
    <style>
      .cls-1 {
        fill: #fff;
      }
    </style>
  </defs>
  <g>
    <path class="cls-1" d="M39.66,171.84c-.14.02-.29.04-.46.08-.45.1-.89.23-1.33.39-.44.15-.85.42-1.23.79-.14.17-.4.65-.79,1.44-.39.79-.86,1.79-1.41,3.02-.55,1.23-1.16,2.64-1.85,4.23-.69,1.59-1.4,3.26-2.15,5.03-.75,1.76-1.52,3.55-2.31,5.38s-1.54,3.6-2.26,5.31c-.58,1.37-1.15,2.69-1.69,3.97-.55,1.28-1.05,2.48-1.51,3.59-.46,1.11-.88,2.08-1.25,2.9-.38.82-.67,1.45-.87,1.9-.04.07-.09.1-.16.1s-.14-.04-.21-.1c-1.85-3.11-3.42-6.29-4.72-9.54-1.3-3.25-2.55-6.53-3.74-9.84-.48-1.26-.96-2.53-1.44-3.79-.48-1.26-.96-2.51-1.44-3.74-.1-.24-.21-.51-.31-.82-.1-.31-.21-.6-.31-.87-.48-1.23-1-2.5-1.56-3.82-.57-1.32-1.15-2.47-1.77-3.46-.38-.62-.79-1.03-1.23-1.23-.45-.21-.92-.38-1.44-.51-.27-.07-.57-.15-.9-.23-.33-.08-.71-.26-1.15-.54-.1-.07-.14-.14-.1-.21.04-.07.1-.1.21-.1.68.04,1.37.06,2.05.08.68.02,1.37.04,2.05.08,1.2.07,2.38.12,3.56.16,1.18.03,2.4.05,3.67.05h1.64c.07,0,.11.06.13.18.02.12,0,.2-.08.23-.17.04-.41.1-.72.18-.31.08-.61.18-.9.28-.29.1-.55.23-.77.38-.22.16-.33.33-.33.54,0,.44.13,1.14.38,2.08.26.94.6,2.04,1.03,3.31.43,1.26.93,2.64,1.51,4.13.58,1.49,1.18,3.01,1.79,4.56.62,1.56,1.23,3.11,1.85,4.67.62,1.56,1.2,3,1.74,4.33.58,1.37,1.06,2.51,1.44,3.43.38.92.68,1.71.92,2.36.27-.68.58-1.42.92-2.21.34-.79.72-1.62,1.13-2.51.86-1.98,1.8-4.14,2.82-6.48,1.03-2.34,1.98-4.64,2.87-6.9.89-2.26,1.62-4.34,2.2-6.26.58-1.91.87-3.45.87-4.62,0-.21-.12-.39-.36-.56-.24-.17-.51-.32-.82-.44-.31-.12-.62-.22-.95-.31s-.57-.15-.74-.18c-.1-.03-.15-.12-.13-.25.02-.14.08-.19.18-.16.89.1,1.78.19,2.67.26.89.07,1.78.1,2.67.1s1.79-.04,2.72-.1c.92-.07,1.85-.15,2.77-.26l.05.41c-.17.07-.33.11-.46.13Z"/>
    <path class="cls-1" d="M66.84,209.2c-.45.03-.9.04-1.36.03-.46-.02-.9-.06-1.31-.13-.34-.03-.7-.07-1.08-.1-.38-.03-.74-.05-1.08-.05-.86,0-1.71.03-2.56.08-.85.05-1.71.11-2.56.18-.17.03-.38.05-.62.05s-.45.02-.62.05c-.1.04-.17,0-.21-.13-.04-.12,0-.21.1-.28l2.77-1.28c-.82-2.19-1.66-4.37-2.51-6.54-.86-2.17-1.69-4.35-2.51-6.54h-10.87c-.24.58-.58,1.47-1.03,2.67-.44,1.2-.88,2.44-1.31,3.72-.43,1.28-.8,2.5-1.13,3.67-.33,1.16-.49,2-.49,2.51,0,.34.09.62.28.85.19.22.42.4.69.54s.57.23.9.28c.32.05.62.09.9.13v.41c-.27-.03-.56-.05-.87-.05s-.6-.02-.87-.05c-.58-.07-1.16-.12-1.74-.16-.58-.03-1.16-.05-1.74-.05-.62,0-1.23.02-1.85.05-.62.04-1.21.09-1.79.16-.38.03-.74.06-1.1.08-.36.02-.73.04-1.1.08-.1,0-.16-.06-.18-.18-.02-.12.03-.2.13-.23,1.33-.21,2.45-.63,3.36-1.28.91-.65,1.6-1.57,2.08-2.77,1.3-3.25,2.53-6.49,3.69-9.74,1.16-3.25,2.32-6.53,3.49-9.84.85-2.43,1.73-4.87,2.64-7.33.91-2.46,1.8-4.89,2.69-7.28.04-.1.1-.15.21-.15s.17.05.21.15c.17.48.36.98.57,1.49.21.51.39,1.03.56,1.54.92,2.56,1.9,5.21,2.92,7.95,1.03,2.74,2.09,5.47,3.2,8.21,1.11,2.73,2.26,5.43,3.44,8.08,1.18,2.65,2.42,5.2,3.72,7.67.58,1.06,1.3,1.82,2.15,2.28.85.46,1.86.74,3.02.85.1,0,.15.07.15.21s-.05.21-.15.21l-1.23.05ZM47.92,177.61c-.17.48-.33.95-.49,1.41-.15.46-.3.91-.43,1.36-.69,2.05-1.33,4.05-1.92,6-.6,1.95-1.26,3.93-1.98,5.95h9.33l-4.51-14.72Z"/>
    <path class="cls-1" d="M95.83,202.66c-.02.12-.03.25-.03.38-.07.99-.17,1.98-.31,2.95-.14.97-.41,1.91-.82,2.8.03.03.05.1.05.21-.07.1-.12.19-.15.25-.07.07-.14.1-.21.1-3.49-.31-6.96-.46-10.41-.46-2.84,0-5.66.05-8.46.15-.45.04-.94.05-1.49.05-.51,0-.97.02-1.38.05-.1,0-.15-.07-.15-.21s.05-.21.15-.21c.51-.03.98-.22,1.41-.56.43-.34.79-.75,1.08-1.23.29-.48.51-1,.67-1.56.15-.56.23-1.08.23-1.56v-28.25c0-1.16-.39-2.08-1.15-2.74-.77-.67-1.7-1.02-2.79-1.05v-.41c2.08.1,4.22.15,6.41.15,1.03,0,2.04-.03,3.05-.1,1.01-.07,2.01-.14,3-.21.1,0,.16.06.18.18.02.12-.03.2-.13.23-.99.17-1.89.59-2.69,1.26s-1.2,1.55-1.2,2.64v25.89c0,.96.17,1.81.51,2.56.34.75.8,1.38,1.38,1.9.58.51,1.26.91,2.05,1.18.79.27,1.64.41,2.56.41,1.78,0,3.41-.5,4.9-1.49,1.49-.99,2.62-2.29,3.41-3.9l.41.15c-.04.17-.06.32-.08.44Z"/>
    <path class="cls-1" d="M124.86,202.87c-.67,1.39-1.56,2.56-2.67,3.54-1.11.98-2.39,1.73-3.84,2.26-1.45.53-2.98.8-4.59.8h-3.28c-1.09,0-2.2-.02-3.33-.05-1.09-.04-2.2-.06-3.31-.08-1.11-.02-2.21-.03-3.31-.03-.1,0-.16-.06-.18-.18-.02-.12.03-.2.13-.23.79-.24,1.41-.49,1.87-.74.46-.26.8-.56,1.03-.92.22-.36.37-.8.44-1.33s.1-1.21.1-2.03v-28.97c0-.58-.06-1.04-.18-1.38-.12-.34-.28-.6-.49-.77-.21-.17-.44-.28-.69-.33s-.52-.09-.79-.13c-.38-.04-.73-.08-1.05-.16-.33-.07-.62-.29-.9-.67-.07-.07-.08-.14-.03-.21.05-.07.13-.08.23-.05,1.03.21,2.02.31,2.97.31.75,0,1.49-.03,2.2-.1.72-.07,1.42-.14,2.1-.21.72-.07,1.44-.12,2.15-.15.72-.04,1.42-.05,2.1-.05,1.16,0,2.37.16,3.64.49,1.26.33,2.41.82,3.44,1.49,1.03.67,1.87,1.51,2.54,2.54.67,1.03,1,2.22,1,3.59,0,.85-.14,1.68-.41,2.46-.28.79-.64,1.55-1.1,2.28-.46.74-.97,1.44-1.54,2.1-.56.67-1.14,1.27-1.72,1.82,1.2.38,2.31.89,3.33,1.54,1.03.65,1.92,1.42,2.69,2.31.77.89,1.37,1.9,1.79,3.03.43,1.13.64,2.32.64,3.59,0,1.71-.33,3.26-1,4.64ZM120.93,196.87c-.31-.97-.74-1.89-1.31-2.74-.56-.85-1.23-1.63-2-2.33-.77-.7-1.61-1.27-2.54-1.72-.92-.48-1.93-.75-3.03-.82-1.09-.07-2.14-.1-3.13-.1h-.36v14.56c0,.65.19,1.22.56,1.72.38.5.85.92,1.41,1.28.56.36,1.17.63,1.82.82.65.19,1.25.28,1.79.28,1.06,0,2.03-.22,2.92-.67.89-.45,1.66-1.04,2.31-1.8.65-.75,1.15-1.61,1.49-2.56.34-.96.51-1.95.51-2.97s-.15-1.98-.46-2.95ZM117.47,177.1c-.29-.89-.71-1.67-1.26-2.33-.55-.67-1.22-1.2-2.02-1.59-.8-.39-1.7-.59-2.69-.59-.48,0-.96.05-1.44.15-.48.1-.96.22-1.44.36v14h.31c1.33,0,2.56-.09,3.67-.28,1.11-.19,2.06-.55,2.85-1.08.79-.53,1.39-1.26,1.82-2.21.43-.94.64-2.16.64-3.67,0-.96-.15-1.88-.44-2.77Z"/>
    <path class="cls-1" d="M163.85,173.23c-.65.8-.97,1.7-.97,2.69v18.61c0,2.12-.34,4.12-1.03,6-.69,1.88-1.66,3.53-2.92,4.95-1.27,1.42-2.8,2.54-4.59,3.36-1.79.82-3.79,1.23-5.97,1.23-1.64,0-3.25-.27-4.82-.8-1.57-.53-3.03-1.26-4.36-2.2-1.33-.94-2.51-2.06-3.51-3.36-1.01-1.3-1.77-2.73-2.28-4.31-.1-.34-.2-.94-.28-1.79-.08-.86-.15-1.87-.18-3.05-.04-1.18-.06-2.47-.08-3.87-.02-1.4-.02-2.8-.02-4.21,0-1.3,0-2.58.02-3.84.02-1.27.03-2.39.03-3.38,0-.68,0-1.31.03-1.87.02-.56.03-1.03.03-1.41,0-1.4-.37-2.39-1.1-2.95-.74-.56-1.73-1-3-1.31-.1-.03-.15-.11-.13-.23.02-.12.08-.18.18-.18,1.37.07,2.73.12,4.08.16,1.35.03,2.69.05,4.03.05h2c.68,0,1.37-.02,2.05-.05.1,0,.17.05.21.15.03.1,0,.19-.1.26-.38.21-.76.44-1.15.72s-.77.59-1.13.95c-.36.36-.65.74-.87,1.13-.22.39-.33.81-.33,1.26v5.33c0,1.74-.02,3.5-.05,5.28-.04,1.78-.05,3.55-.05,5.33v5.33c0,1.57.27,3,.82,4.28.55,1.28,1.31,2.38,2.28,3.31.97.92,2.13,1.63,3.46,2.13,1.33.5,2.77.74,4.31.74s3.03-.26,4.36-.77c1.33-.51,2.49-1.24,3.46-2.18.97-.94,1.74-2.06,2.31-3.36.56-1.3.85-2.75.85-4.36v-5.23c0-1.78-.02-3.54-.05-5.28-.04-1.74-.05-3.49-.05-5.23v-5.28c0-1.4-.35-2.43-1.05-3.08-.7-.65-1.72-1.08-3.05-1.28-.1-.03-.15-.11-.13-.23.02-.12.08-.18.18-.18.62.07,1.21.1,1.79.1h4.21c.75,0,1.49,0,2.2.03.72.02,1.47.03,2.26.03h.62l.05.41c-1.03.17-1.86.66-2.51,1.46Z"/>
    <path class="cls-1" d="M192.38,205.17c-.12.84-.25,1.67-.38,2.49v-.05l-.16,1.23c0,.14-.07.21-.21.21,0-.03-.05,0-.15.1l-.77.15h-3.28c-1.1,0-2.19-.02-3.28-.05-1.09,0-2.17,0-3.23-.02-1.06-.02-2.14-.03-3.23-.03h-3.28c-1.09,0-2.19.03-3.28.1v-.41c.75-.03,1.35-.2,1.79-.49.45-.29.79-.67,1.03-1.13.24-.46.4-.99.49-1.59.08-.6.13-1.21.13-1.82v-28.97c0-.51-.06-.91-.18-1.2s-.28-.52-.49-.69c-.21-.17-.44-.3-.69-.38s-.54-.16-.85-.23c-.34-.07-.67-.16-1-.28s-.68-.32-1.05-.59c-.07-.07-.08-.13-.05-.21.04-.07.08-.1.16-.1h3.13c1.13.03,2.48.06,4.05.08,1.57.02,3.08.03,4.51.03,1.09,0,2.16,0,3.21-.03,1.04-.02,1.98-.04,2.82-.08.84-.03,1.56-.08,2.15-.15.6-.07,1-.16,1.2-.26.21-.14.31-.08.31.15-.1.96-.25,1.91-.44,2.87-.19.96-.39,1.88-.59,2.77-.03.17-.07.32-.1.44-.04.12-.07.26-.1.44-.03.1-.11.15-.23.13-.12-.02-.18-.08-.18-.18-.14-1.67-.7-2.78-1.69-3.31-.99-.53-2.26-.79-3.79-.79h-5.49v14.51h8.05c.24,0,.54-.08.9-.23.36-.15.73-.32,1.1-.49.27-.13.55-.26.82-.36.27-.1.55-.19.82-.26.17-.07.26,0,.26.21-.07.55-.14,1.1-.21,1.64-.07.55-.14,1.08-.21,1.59-.1.68-.2,1.34-.28,1.97-.08.63-.16,1.27-.23,1.92,0,.1-.04.17-.13.21-.09.04-.16.02-.23-.05-.17-.17-.31-.38-.41-.64-.1-.26-.19-.52-.26-.79s-.15-.55-.26-.82c-.1-.27-.29-.55-.56-.82-.21-.24-.62-.43-1.26-.56s-1.32-.23-2.05-.28c-.74-.05-1.46-.08-2.18-.08h-3.64v14.26c.34.58.77,1.08,1.28,1.49.51.41,1.07.75,1.67,1.03.6.27,1.22.48,1.87.62.65.14,1.28.21,1.9.21,1.61,0,3-.43,4.18-1.28,1.18-.85,1.96-2.07,2.33-3.64l.36.05c-.17.82-.32,1.65-.44,2.49Z"/>
    <path class="cls-1" d="M237.07,171.87c-.07,0-.14.02-.21.05-.31.1-.64.21-1,.31-.36.1-.69.23-1,.38-.31.15-.55.36-.74.62-.19.26-.28.56-.28.9v4.2c0,1.4.02,2.8.05,4.21.03,1.4.05,2.8.05,4.21v4.21c0,3.11-.04,6.21-.13,9.31-.09,3.09-.27,6.21-.54,9.36,0,.07-.04.13-.13.18-.09.05-.16.04-.23-.03-4.65-4-9.06-8.27-13.23-12.82-4.17-4.55-8.27-9.13-12.31-13.74-.68-.79-1.29-1.49-1.82-2.13-.53-.63-1.14-1.32-1.82-2.08-.07.65-.13,1.28-.18,1.9-.05.62-.08,1.25-.08,1.9,0,1.74.03,3.5.1,5.26s.14,3.55.21,5.36c.07,1.78.14,3.54.21,5.28.07,1.74.1,3.5.1,5.28,0,.89.06,1.58.18,2.08.12.5.29.87.51,1.13.22.25.48.43.77.54.29.1.61.19.95.26.38.07.77.16,1.18.28.41.12.84.35,1.28.69.07.07.09.15.08.23-.02.08-.08.13-.18.13-.48-.03-.96-.07-1.44-.1-.48-.03-.96-.08-1.44-.16-.62-.07-1.24-.13-1.87-.18-.63-.05-1.27-.08-1.92-.08-.86,0-1.73.05-2.62.15-.89.1-1.78.22-2.67.36-.07.04-.13,0-.18-.1-.05-.1-.04-.19.03-.26.34-.27.65-.5.92-.67.27-.17.55-.34.82-.51.31-.17.6-.33.87-.49s.51-.36.72-.62.37-.58.49-.97c.12-.39.18-.9.18-1.51v-1.44c0-.65-.02-1.42-.05-2.31-.04-1.88-.06-4.15-.08-6.82-.02-2.67-.02-5.38-.02-8.15,0-1.88,0-3.69.02-5.44.02-1.74.05-3.3.1-4.67.05-1.37.12-2.49.21-3.36.08-.87.21-1.38.38-1.51.14-.07.24-.07.31,0,5.06,5.2,9.98,10.37,14.77,15.51,4.79,5.14,9.59,10.43,14.41,15.87v-.41c0-4.24-.05-8.49-.15-12.77-.1-4.24-.16-8.5-.16-12.77,0-.85-.08-1.53-.25-2.02-.17-.5-.4-.87-.69-1.13-.29-.25-.61-.42-.95-.49-.34-.07-.69-.14-1.03-.21-.31-.07-.62-.13-.92-.18-.31-.05-.58-.18-.82-.39-.07-.07-.08-.14-.03-.23.05-.08.13-.11.23-.08.99.1,1.98.21,2.97.33.99.12,1.98.15,2.97.08l1.8-.15c.34-.04.7-.08,1.08-.13.38-.05.74-.04,1.08.03.17,0,.39,0,.67.03.27.02.48.03.62.03l.05.41c-.07.04-.14.05-.21.05Z"/>
    <path class="cls-1" d="M277.99,209.2c-.45.03-.9.04-1.36.03-.46-.02-.9-.06-1.31-.13-.34-.03-.7-.07-1.08-.1-.38-.03-.74-.05-1.08-.05-.86,0-1.71.03-2.56.08-.85.05-1.71.11-2.56.18-.17.03-.38.05-.62.05s-.45.02-.62.05c-.1.04-.17,0-.21-.13-.04-.12,0-.21.1-.28l2.77-1.28c-.82-2.19-1.66-4.37-2.51-6.54-.86-2.17-1.69-4.35-2.51-6.54h-10.87c-.24.58-.58,1.47-1.03,2.67-.44,1.2-.88,2.44-1.31,3.72-.43,1.28-.8,2.5-1.13,3.67-.33,1.16-.49,2-.49,2.51,0,.34.09.62.28.85.19.22.42.4.69.54s.57.23.9.28c.32.05.62.09.9.13v.41c-.27-.03-.56-.05-.87-.05s-.6-.02-.87-.05c-.58-.07-1.16-.12-1.74-.16-.58-.03-1.16-.05-1.74-.05-.62,0-1.23.02-1.85.05-.62.04-1.21.09-1.79.16-.38.03-.74.06-1.1.08-.36.02-.73.04-1.1.08-.1,0-.16-.06-.18-.18-.02-.12.03-.2.13-.23,1.33-.21,2.45-.63,3.36-1.28.91-.65,1.6-1.57,2.08-2.77,1.3-3.25,2.53-6.49,3.69-9.74,1.16-3.25,2.32-6.53,3.49-9.84.85-2.43,1.73-4.87,2.64-7.33.91-2.46,1.8-4.89,2.69-7.28.04-.1.1-.15.21-.15s.17.05.21.15c.17.48.36.98.57,1.49.21.51.39,1.03.56,1.54.92,2.56,1.9,5.21,2.92,7.95,1.03,2.74,2.09,5.47,3.2,8.21,1.11,2.73,2.26,5.43,3.44,8.08,1.18,2.65,2.42,5.2,3.72,7.67.58,1.06,1.3,1.82,2.15,2.28.85.46,1.86.74,3.02.85.1,0,.15.07.15.21s-.05.21-.15.21l-1.23.05ZM259.07,177.61c-.17.48-.33.95-.49,1.41-.15.46-.3.91-.43,1.36-.69,2.05-1.33,4.05-1.92,6-.6,1.95-1.26,3.93-1.98,5.95h9.33l-4.51-14.72Z"/>
    <path class="cls-1" d="M25.13,250.16c-.67,1.39-1.56,2.56-2.67,3.54-1.11.98-2.39,1.73-3.84,2.26-1.45.53-2.98.8-4.59.8h-3.28c-1.09,0-2.2-.02-3.33-.05-1.09-.04-2.2-.06-3.31-.08-1.11-.02-2.21-.03-3.31-.03-.1,0-.16-.06-.18-.18-.02-.12.03-.2.13-.23.79-.24,1.41-.49,1.87-.74.46-.26.8-.56,1.03-.92.22-.36.37-.8.44-1.33.07-.53.1-1.21.1-2.03v-28.97c0-.58-.06-1.04-.18-1.38s-.28-.6-.49-.77c-.21-.17-.44-.28-.69-.33-.26-.05-.52-.09-.79-.13-.38-.04-.73-.08-1.05-.16-.33-.07-.62-.29-.9-.67-.07-.07-.08-.14-.03-.21.05-.07.13-.08.23-.05,1.03.21,2.02.31,2.97.31.75,0,1.49-.03,2.2-.1.72-.07,1.42-.14,2.1-.21.72-.07,1.44-.12,2.15-.15.72-.04,1.42-.05,2.1-.05,1.16,0,2.37.16,3.64.49,1.26.33,2.41.82,3.44,1.49,1.03.67,1.87,1.51,2.54,2.54.67,1.03,1,2.22,1,3.59,0,.85-.14,1.68-.41,2.46-.28.79-.64,1.55-1.1,2.28-.46.74-.97,1.44-1.54,2.1-.56.67-1.14,1.27-1.72,1.82,1.2.38,2.31.89,3.33,1.54,1.03.65,1.92,1.42,2.69,2.31.77.89,1.37,1.9,1.79,3.03.43,1.13.64,2.32.64,3.59,0,1.71-.33,3.26-1,4.64ZM21.2,244.16c-.31-.97-.74-1.89-1.31-2.74-.56-.85-1.23-1.63-2-2.33-.77-.7-1.61-1.27-2.54-1.72-.92-.48-1.93-.75-3.03-.82-1.09-.07-2.14-.1-3.13-.1h-.36v14.56c0,.65.19,1.22.56,1.72.38.5.85.92,1.41,1.28.56.36,1.17.63,1.82.82.65.19,1.25.28,1.79.28,1.06,0,2.03-.22,2.92-.67.89-.45,1.66-1.04,2.31-1.8.65-.75,1.15-1.61,1.49-2.56.34-.96.51-1.95.51-2.97s-.15-1.98-.46-2.95ZM17.74,224.4c-.29-.89-.71-1.67-1.26-2.33-.55-.67-1.22-1.2-2.02-1.59-.8-.39-1.7-.59-2.69-.59-.48,0-.96.05-1.44.15-.48.1-.96.22-1.44.36v14h.31c1.33,0,2.56-.09,3.67-.28,1.11-.19,2.06-.55,2.85-1.08.79-.53,1.39-1.26,1.82-2.21.43-.94.64-2.16.64-3.67,0-.96-.15-1.88-.44-2.77Z"/>
    <path class="cls-1" d="M65.58,257.06c-.84.21-1.7.31-2.59.31-1.33,0-2.56-.28-3.69-.82-1.13-.55-2.17-1.25-3.13-2.1-.96-.86-1.85-1.82-2.67-2.9-.82-1.08-1.59-2.15-2.31-3.21-.72-1.06-1.53-2.17-2.44-3.33-.91-1.16-1.8-2.12-2.69-2.87-.68-.58-1.47-.93-2.36-1.05s-1.78-.18-2.67-.18h-1.13c-.38,0-.75.02-1.13.05v9.9c0,1.4.42,2.59,1.26,3.56.84.97,1.94,1.53,3.31,1.67v.41c-1.06-.1-2.12-.19-3.18-.26-1.06-.07-2.12-.1-3.18-.1s-2.1.04-3.13.13c-1.03.08-2.07.2-3.13.33-.1.04-.17,0-.21-.13-.04-.12,0-.21.1-.28.99-.44,1.82-1.14,2.49-2.08.67-.94,1-1.96,1-3.05v-27.79c0-1.09-.4-2.05-1.21-2.87-.8-.82-1.73-1.37-2.79-1.64-.1-.04-.15-.1-.13-.21.02-.1.08-.16.18-.16h.97c.51,0,1.03,0,1.54.03.51.02,1.01.04,1.49.08,1.03.1,2.05.15,3.08.15,1.09,0,2.21-.05,3.33-.15.58-.03,1.14-.06,1.67-.08.53-.02,1.09-.03,1.67-.03,1.44,0,2.84.17,4.21.51s2.59.88,3.67,1.61c1.08.74,1.94,1.68,2.59,2.85.65,1.16.97,2.58.97,4.26,0,1.09-.17,2.18-.51,3.26-.34,1.08-.79,2.11-1.36,3.1-.56.99-1.21,1.92-1.95,2.8-.74.87-1.48,1.67-2.23,2.38.48.55,1.04,1.27,1.69,2.15.65.89,1.32,1.79,2,2.72,1.03,1.4,2.1,2.84,3.23,4.31,1.13,1.47,2.32,2.79,3.56,3.95,1.25,1.16,2.55,2.08,3.9,2.74,1.35.67,2.76.91,4.23.74l.1.41c-.79.38-1.6.67-2.44.87ZM49.99,226.6c-.36-1.23-.89-2.34-1.59-3.33-.7-.99-1.56-1.79-2.59-2.41-1.03-.62-2.22-.92-3.59-.92-.58,0-1.15.04-1.72.13-.56.09-1.12.23-1.67.44v17.43c.79.14,1.58.23,2.38.28.8.05,1.58.08,2.33.08,2.6,0,4.41-.72,5.44-2.15,1.03-1.44,1.54-3.38,1.54-5.85,0-1.23-.18-2.46-.54-3.69Z"/>
    <path class="cls-1" d="M101.58,246.21c-1.08,2.27-2.52,4.24-4.33,5.9-1.81,1.66-3.92,2.95-6.31,3.87-2.39.92-4.91,1.39-7.54,1.39-1.44,0-2.92-.24-4.46-.72-1.54-.48-3.04-1.15-4.51-2-1.47-.86-2.86-1.86-4.18-3.03-1.32-1.16-2.48-2.41-3.49-3.74-1.01-1.33-1.8-2.73-2.39-4.2-.58-1.47-.87-2.96-.87-4.46,0-3.35.31-6.24.92-8.67.62-2.43,1.62-4.49,3.03-6.18,1.4-1.69,3.23-3.08,5.49-4.15,2.26-1.08,5.03-1.96,8.31-2.64.14-.03.27-.05.41-.05h.46c2.97,0,5.74.55,8.31,1.64,2.56,1.09,4.79,2.6,6.69,4.51,1.9,1.91,3.38,4.16,4.46,6.74,1.08,2.58,1.61,5.36,1.61,8.33,0,2.7-.54,5.19-1.61,7.46ZM97.71,231.83c-.69-2.26-1.68-4.29-3-6.1-1.32-1.81-2.95-3.28-4.9-4.41-1.95-1.13-4.19-1.69-6.72-1.69-2.39,0-4.51.44-6.36,1.31-1.85.87-3.4,2.05-4.67,3.54-1.26,1.49-2.22,3.23-2.87,5.23-.65,2-.97,4.13-.97,6.38s.35,4.58,1.05,6.87c.7,2.29,1.73,4.34,3.08,6.15,1.35,1.81,3.01,3.29,4.97,4.44,1.97,1.15,4.21,1.72,6.74,1.72,2.36,0,4.45-.45,6.28-1.36,1.83-.91,3.37-2.12,4.62-3.64,1.25-1.52,2.19-3.28,2.82-5.28.63-2,.95-4.11.95-6.33s-.34-4.56-1.03-6.82Z"/>
    <path class="cls-1" d="M140.01,257.47c-1.57,0-3.17-.45-4.79-1.33-1.62-.89-3.23-2.02-4.82-3.38-1.59-1.37-3.14-2.89-4.67-4.56-1.52-1.68-2.98-3.32-4.38-4.92-1.03-1.16-1.98-2.23-2.85-3.2-.87-.97-1.72-1.85-2.54-2.64,0,.68,0,1.38-.03,2.08-.02.7-.03,1.39-.03,2.08-.04,1.57-.06,3.13-.08,4.67-.02,1.54-.03,3.08-.03,4.62,0,.89.04,1.59.1,2.1.07.51.2.91.38,1.18.19.27.42.48.69.62.27.14.62.27,1.03.41.34.1.71.23,1.1.38.39.16.78.33,1.15.54.1.07.14.15.1.25-.03.1-.1.16-.21.16-1.06-.07-2.12-.14-3.18-.21-1.06-.07-2.1-.1-3.13-.1s-2.04.04-3.05.1c-1.01.07-2.02.15-3.05.25-.1,0-.16-.06-.18-.18-.02-.12.03-.2.13-.23.86-.13,1.52-.33,2-.59.48-.25.83-.59,1.05-1,.22-.41.35-.91.38-1.49.03-.58.05-1.26.05-2.05v-28.35c0-.51-.13-.97-.39-1.39-.25-.41-.57-.76-.95-1.05-.38-.29-.8-.53-1.28-.72-.48-.19-.94-.32-1.38-.38-.1-.03-.15-.12-.13-.26.02-.14.08-.19.18-.15.85.1,1.76.15,2.72.15.65,0,1.31-.02,1.98-.05.67-.03,1.34-.07,2.02-.1.72-.07,1.49-.11,2.31-.13.82-.02,1.59,0,2.31.03.1,0,.21,0,.33.03.12.02.23.03.33.03s.15.07.15.21-.05.21-.15.21c-.92.07-1.72.45-2.39,1.13-.67.68-1,1.52-1,2.51.03,2.26.06,4.43.08,6.54.02,2.1.04,4.28.08,6.54.55-.68,1.25-1.44,2.1-2.26.85-.82,1.67-1.61,2.46-2.36.99-.92,2.01-1.9,3.05-2.92,1.04-1.03,1.99-2.02,2.85-3,.85-.97,1.56-1.9,2.1-2.79.55-.89.82-1.69.82-2.41,0-.44-.12-.91-.36-1.38-.1-.17-.05-.26.15-.26,1.03.07,2.03.1,3.02.1h2.97c.41,0,.81,0,1.2.03s.78.03,1.15.03l1.54.05c.1,0,.15.07.15.21,0,.1-.05.17-.15.21-1.16.14-2.36.57-3.59,1.31-1.23.74-2.46,1.64-3.69,2.72-1.23,1.08-2.45,2.25-3.67,3.51-1.21,1.27-2.37,2.5-3.46,3.69-.86.96-1.7,1.88-2.54,2.77-.84.89-1.61,1.66-2.33,2.31.65.58,1.35,1.3,2.1,2.15.75.86,1.57,1.78,2.46,2.77.99,1.09,2.04,2.23,3.15,3.41,1.11,1.18,2.25,2.35,3.41,3.51,1.16,1.16,2.33,2.27,3.51,3.31,1.18,1.04,2.34,1.96,3.49,2.74,1.14.79,2.26,1.41,3.33,1.87,1.08.46,2.08.69,3,.69l.1.36c-1.37.89-2.82,1.33-4.36,1.33Z"/>
    <path class="cls-1" d="M170.39,252.47c-.12.84-.25,1.67-.38,2.49v-.05l-.16,1.23c0,.14-.07.21-.21.21,0-.03-.05,0-.15.1l-.77.15h-3.28c-1.1,0-2.19-.02-3.28-.05-1.09,0-2.17,0-3.23-.02-1.06-.02-2.14-.03-3.23-.03h-3.28c-1.09,0-2.19.03-3.28.1v-.41c.75-.03,1.35-.2,1.79-.49.45-.29.79-.67,1.03-1.13.24-.46.4-.99.49-1.59s.13-1.21.13-1.82v-28.97c0-.51-.06-.91-.18-1.2s-.28-.52-.49-.69c-.21-.17-.44-.3-.69-.38s-.54-.16-.85-.23c-.34-.07-.67-.16-1-.28-.33-.12-.68-.32-1.05-.59-.07-.07-.08-.13-.05-.21.04-.07.08-.1.16-.1h3.13c1.13.03,2.48.06,4.05.08,1.57.02,3.08.03,4.51.03,1.09,0,2.16,0,3.21-.03,1.04-.02,1.98-.04,2.82-.08.84-.03,1.56-.08,2.15-.15.6-.07,1-.16,1.2-.26.21-.14.31-.08.31.15-.1.96-.25,1.91-.44,2.87-.19.96-.39,1.88-.59,2.77-.03.17-.07.32-.1.44-.04.12-.07.26-.1.44-.03.1-.11.15-.23.13-.12-.02-.18-.08-.18-.18-.14-1.67-.7-2.78-1.69-3.31-.99-.53-2.26-.79-3.79-.79h-5.49v14.51h8.05c.24,0,.54-.08.9-.23.36-.15.73-.32,1.1-.49.27-.13.55-.26.82-.36.27-.1.55-.19.82-.26.17-.07.26,0,.26.21-.07.55-.14,1.1-.21,1.64-.07.55-.14,1.08-.21,1.59-.1.68-.2,1.34-.28,1.97-.08.63-.16,1.27-.23,1.92,0,.1-.04.17-.13.21-.09.04-.16.02-.23-.05-.17-.17-.31-.38-.41-.64-.1-.26-.19-.52-.26-.79s-.15-.55-.26-.82c-.1-.27-.29-.55-.56-.82-.21-.24-.62-.43-1.26-.56-.63-.14-1.32-.23-2.05-.28-.74-.05-1.46-.08-2.18-.08h-3.64v14.26c.34.58.77,1.08,1.28,1.49.51.41,1.07.75,1.67,1.03.6.27,1.22.48,1.87.62.65.14,1.28.21,1.9.21,1.61,0,3-.43,4.18-1.28,1.18-.85,1.96-2.07,2.33-3.64l.36.05c-.17.82-.32,1.65-.44,2.49Z"/>
    <path class="cls-1" d="M210.28,257.06c-.84.21-1.7.31-2.59.31-1.33,0-2.56-.28-3.69-.82-1.13-.55-2.17-1.25-3.13-2.1-.96-.86-1.85-1.82-2.67-2.9-.82-1.08-1.59-2.15-2.31-3.21-.72-1.06-1.53-2.17-2.44-3.33-.91-1.16-1.8-2.12-2.69-2.87-.68-.58-1.47-.93-2.36-1.05s-1.78-.18-2.67-.18h-1.13c-.38,0-.75.02-1.13.05v9.9c0,1.4.42,2.59,1.26,3.56.84.97,1.94,1.53,3.31,1.67v.41c-1.06-.1-2.12-.19-3.18-.26-1.06-.07-2.12-.1-3.18-.1s-2.1.04-3.13.13c-1.03.08-2.07.2-3.13.33-.1.04-.17,0-.21-.13-.04-.12,0-.21.1-.28.99-.44,1.82-1.14,2.49-2.08.67-.94,1-1.96,1-3.05v-27.79c0-1.09-.4-2.05-1.21-2.87-.8-.82-1.73-1.37-2.79-1.64-.1-.04-.15-.1-.13-.21.02-.1.08-.16.18-.16h.97c.51,0,1.03,0,1.54.03.51.02,1.01.04,1.49.08,1.03.1,2.05.15,3.08.15,1.09,0,2.21-.05,3.33-.15.58-.03,1.14-.06,1.67-.08.53-.02,1.09-.03,1.67-.03,1.44,0,2.84.17,4.21.51s2.59.88,3.67,1.61c1.08.74,1.94,1.68,2.59,2.85.65,1.16.97,2.58.97,4.26,0,1.09-.17,2.18-.51,3.26-.34,1.08-.79,2.11-1.36,3.1-.56.99-1.21,1.92-1.95,2.8-.74.87-1.48,1.67-2.23,2.38.48.55,1.04,1.27,1.69,2.15.65.89,1.32,1.79,2,2.72,1.03,1.4,2.1,2.84,3.23,4.31,1.13,1.47,2.32,2.79,3.56,3.95,1.25,1.16,2.55,2.08,3.9,2.74,1.35.67,2.76.91,4.23.74l.1.41c-.79.38-1.6.67-2.44.87ZM194.69,226.6c-.36-1.23-.89-2.34-1.59-3.33-.7-.99-1.56-1.79-2.59-2.41-1.03-.62-2.22-.92-3.59-.92-.58,0-1.15.04-1.72.13-.56.09-1.12.23-1.67.44v17.43c.79.14,1.58.23,2.38.28.8.05,1.58.08,2.33.08,2.6,0,4.41-.72,5.44-2.15,1.03-1.44,1.54-3.38,1.54-5.85,0-1.23-.18-2.46-.54-3.69Z"/>
    <path class="cls-1" d="M235.07,250.98c-.85,1.32-1.94,2.45-3.26,3.41-1.32.96-2.77,1.69-4.36,2.2-1.59.51-3.1.77-4.54.77-.72,0-1.45-.08-2.2-.23-.75-.16-1.44-.41-2.05-.77-.62-.36-1.12-.82-1.51-1.38-.39-.56-.59-1.27-.59-2.13,0-.62.06-1.2.18-1.74.12-.55.25-1.08.38-1.59.07-.27.13-.55.18-.85.05-.29.11-.57.18-.84.03-.1.11-.15.23-.13.12.02.18.08.18.18v.57c0,1.06.18,2,.54,2.82.36.82.86,1.5,1.51,2.05.65.55,1.4.97,2.26,1.26.86.29,1.8.44,2.82.44.85,0,1.73-.15,2.61-.44s1.69-.7,2.41-1.23c.72-.53,1.31-1.18,1.77-1.95.46-.77.69-1.61.69-2.54,0-.86-.21-1.73-.64-2.64-.43-.91-.99-1.8-1.69-2.69-.7-.89-1.5-1.78-2.39-2.67-.89-.89-1.79-1.76-2.72-2.61-.96-.92-1.92-1.85-2.87-2.8-.96-.94-1.81-1.9-2.56-2.9-.75-.99-1.37-2-1.85-3.02-.48-1.03-.72-2.05-.72-3.08,0-1.57.44-2.92,1.33-4.05.89-1.13,1.98-2.05,3.28-2.77,1.3-.72,2.71-1.24,4.23-1.56,1.52-.33,2.93-.49,4.23-.49,1.78,0,3.45.22,5.03.67.1,0,.15.07.15.21-.1,1.09-.21,2.19-.33,3.28-.12,1.1-.27,2.19-.44,3.28,0,.07,0,.13-.03.18-.02.05-.03.11-.03.18,0,.1-.06.16-.18.18s-.2-.03-.23-.13c-.17-.82-.44-1.59-.79-2.31-.36-.72-.8-1.34-1.33-1.87s-1.15-.96-1.85-1.28c-.7-.33-1.48-.49-2.33-.49s-1.72.15-2.49.46c-.77.31-1.44.73-2,1.26s-1.01,1.17-1.33,1.92c-.33.75-.49,1.57-.49,2.46s.2,1.79.59,2.59c.39.8.91,1.59,1.54,2.36.63.77,1.37,1.52,2.2,2.26.84.74,1.7,1.46,2.59,2.18.96.82,1.91,1.65,2.87,2.49.96.84,1.81,1.72,2.56,2.64.75.92,1.36,1.91,1.82,2.97.46,1.06.69,2.22.69,3.49,0,1.64-.43,3.12-1.28,4.43Z"/>
    <path class="cls-1" d="M290.15,253.17c-.4.06-.84.09-1.32.11-.47.02-.95.03-1.43.03h-1.54c-1.06,0-2-.09-2.83-.28-.82-.18-1.59-.45-2.3-.8-.71-.35-1.42-.79-2.11-1.32-.69-.53-1.43-1.13-2.19-1.78-1.54,1.13-3.18,2.18-4.94,3.13-1.76.95-3.62,1.43-5.6,1.43-1.43,0-2.82-.24-4.2-.71-1.37-.47-2.6-1.14-3.68-2-1.08-.86-1.96-1.9-2.63-3.13-.68-1.22-1.02-2.61-1.02-4.14,0-1.21.18-2.3.55-3.29s.84-1.91,1.43-2.77c.59-.86,1.26-1.66,2.03-2.41.77-.75,1.57-1.47,2.41-2.17-.73-.73-1.35-1.56-1.84-2.5-.49-.93-.74-1.97-.74-3.1,0-1.32.29-2.53.88-3.65.59-1.12,1.36-2.09,2.33-2.91.97-.82,2.06-1.46,3.26-1.92,1.21-.46,2.43-.69,3.68-.69.95,0,1.91.07,2.88.22.97.15,1.91.4,2.82.77.11,0,.16.06.16.16.26.99.38,2.07.38,3.24,0,1.46-.24,2.84-.71,4.11-.07.11-.16.16-.27.14-.11-.02-.16-.08-.16-.19l.05-.88c.04-.81-.11-1.55-.44-2.22-.33-.68-.78-1.26-1.35-1.76-.57-.5-1.23-.88-2-1.15-.77-.28-1.54-.41-2.3-.41-1.54,0-2.81.5-3.81,1.48-1.01.99-1.51,2.25-1.51,3.79,0,1.32.45,2.75,1.35,4.31.9,1.56,2.01,3.12,3.35,4.69,1.34,1.57,2.77,3.1,4.31,4.58,1.54,1.48,2.94,2.81,4.22,3.98.4.37.79.71,1.15,1.04.36.33.69.62.99.88.59-.95,1.12-2,1.59-3.15.47-1.15.71-2.26.71-3.32s-.35-1.92-1.04-2.47-1.55-.9-2.58-1.04c-.11-.04-.16-.09-.16-.16,0-.11.05-.18.16-.22.69-.22,1.46-.33,2.3-.33s1.6.08,2.39.25c.79.16,1.54.45,2.28.85.07.07.11.15.11.22-.18.77-.4,1.63-.66,2.58-.26.95-.56,1.9-.91,2.85-.35.95-.72,1.87-1.13,2.74-.4.88-.84,1.63-1.32,2.25,1.61,1.61,3.38,3.01,5.32,4.2,1.94,1.19,4.04,1.93,6.31,2.22l.11.44c-.15.07-.42.14-.82.19ZM267.85,241.64c-2.18-2.21-4.25-4.53-6.23-6.94-.99,1.06-1.81,2.27-2.47,3.62-.66,1.35-.99,2.76-.99,4.22,0,1.24.25,2.41.74,3.51.49,1.1,1.16,2.07,2,2.91.84.84,1.81,1.51,2.91,2,1.1.5,2.27.74,3.51.74,1.46,0,2.84-.36,4.14-1.07,1.3-.71,2.44-1.62,3.43-2.72-2.52-1.98-4.88-4.07-7.05-6.28Z"/>
    <path class="cls-1" d="M35.35,303.8c-.42.03-.86.04-1.3.02-.44-.01-.86-.06-1.25-.12-.33-.03-.67-.06-1.03-.1-.36-.03-.71-.05-1.03-.05-.82,0-1.64.02-2.46.07-.82.05-1.64.11-2.46.17-.16.03-.36.05-.59.05s-.43.02-.59.05c-.1.03-.16,0-.2-.12-.03-.11,0-.21.1-.27l2.66-1.23c-.79-2.1-1.59-4.19-2.41-6.27-.82-2.08-1.62-4.17-2.41-6.27h-10.43c-.23.56-.56,1.41-.98,2.56-.43,1.15-.84,2.34-1.25,3.57-.41,1.23-.77,2.4-1.08,3.52-.31,1.12-.47,1.92-.47,2.41,0,.33.09.6.27.81.18.21.4.39.66.52.26.13.55.22.86.27.31.05.6.09.86.12v.39c-.26-.03-.54-.05-.84-.05s-.57-.02-.84-.05c-.56-.06-1.12-.11-1.67-.15-.56-.03-1.12-.05-1.67-.05-.59,0-1.18.02-1.77.05-.59.03-1.16.08-1.72.15-.36.03-.71.06-1.06.07-.35.02-.7.04-1.06.07-.1,0-.16-.06-.17-.17s.02-.19.12-.22c1.28-.2,2.35-.61,3.22-1.23.87-.62,1.53-1.51,1.99-2.65,1.25-3.12,2.43-6.23,3.54-9.35,1.11-3.12,2.23-6.26,3.34-9.44.82-2.33,1.66-4.67,2.53-7.03.87-2.36,1.73-4.69,2.58-6.98.03-.1.1-.15.2-.15s.16.05.2.15c.16.46.34.93.54,1.43.2.49.38.98.54,1.47.88,2.46,1.82,5,2.8,7.62.98,2.62,2.01,5.25,3.07,7.87,1.07,2.62,2.17,5.21,3.3,7.75,1.13,2.54,2.32,4.99,3.57,7.35.56,1.02,1.25,1.75,2.07,2.19.82.44,1.79.71,2.9.81.1,0,.15.06.15.2s-.05.2-.15.2l-1.18.05ZM17.2,273.5c-.16.46-.32.91-.47,1.35-.15.44-.29.88-.42,1.3-.66,1.97-1.27,3.89-1.85,5.76-.57,1.87-1.2,3.77-1.89,5.71h8.95l-4.33-14.12Z"/>
    <path class="cls-1" d="M58.12,298.51c-.82,1.26-1.86,2.35-3.12,3.27-1.26.92-2.65,1.62-4.18,2.11-1.52.49-2.97.74-4.35.74-.69,0-1.39-.07-2.12-.22-.72-.15-1.38-.39-1.97-.74-.59-.35-1.07-.79-1.45-1.33s-.57-1.22-.57-2.04c0-.59.06-1.15.17-1.67s.24-1.03.37-1.53c.06-.26.12-.53.17-.81.05-.28.11-.55.17-.81.03-.1.11-.14.22-.12.11.02.17.07.17.17v.54c0,1.02.17,1.92.52,2.7.34.79.83,1.44,1.45,1.97.62.53,1.34.93,2.16,1.21.82.28,1.72.42,2.71.42.82,0,1.66-.14,2.51-.42.85-.28,1.62-.67,2.31-1.18.69-.51,1.25-1.13,1.7-1.87.44-.74.67-1.55.67-2.44,0-.82-.21-1.66-.62-2.53-.41-.87-.95-1.73-1.62-2.58-.67-.85-1.43-1.7-2.29-2.56-.85-.85-1.72-1.69-2.61-2.51-.92-.88-1.84-1.78-2.75-2.68-.92-.9-1.74-1.83-2.46-2.78-.72-.95-1.31-1.92-1.77-2.9-.46-.98-.69-1.97-.69-2.95,0-1.51.42-2.8,1.28-3.89.85-1.08,1.9-1.97,3.15-2.66,1.25-.69,2.6-1.19,4.06-1.5,1.46-.31,2.81-.47,4.06-.47,1.71,0,3.31.21,4.82.64.1,0,.15.06.15.2-.1,1.05-.21,2.1-.32,3.15-.11,1.05-.25,2.1-.42,3.15,0,.07,0,.12-.03.17-.02.05-.02.11-.02.17,0,.1-.06.16-.17.17s-.19-.03-.22-.12c-.16-.79-.42-1.52-.76-2.21-.34-.69-.77-1.29-1.28-1.8-.51-.51-1.1-.92-1.77-1.23-.67-.31-1.42-.47-2.24-.47s-1.65.15-2.39.44c-.74.3-1.38.7-1.92,1.21-.54.51-.97,1.12-1.28,1.84-.31.72-.47,1.51-.47,2.36s.19,1.71.57,2.48c.38.77.87,1.53,1.48,2.26.61.74,1.31,1.46,2.11,2.17.8.7,1.63,1.4,2.48,2.09.92.79,1.84,1.58,2.75,2.39.92.8,1.74,1.65,2.46,2.53.72.89,1.3,1.84,1.75,2.85.44,1.02.67,2.13.67,3.34,0,1.57-.41,2.99-1.23,4.25Z"/>
    <path class="cls-1" d="M80.8,298.51c-.82,1.26-1.86,2.35-3.12,3.27-1.26.92-2.65,1.62-4.18,2.11-1.52.49-2.97.74-4.35.74-.69,0-1.39-.07-2.12-.22-.72-.15-1.38-.39-1.97-.74-.59-.35-1.07-.79-1.45-1.33s-.57-1.22-.57-2.04c0-.59.06-1.15.17-1.67.11-.52.24-1.03.37-1.53.06-.26.12-.53.17-.81.05-.28.11-.55.17-.81.03-.1.11-.14.22-.12.11.02.17.07.17.17v.54c0,1.02.17,1.92.52,2.7.34.79.83,1.44,1.45,1.97.62.53,1.34.93,2.16,1.21.82.28,1.72.42,2.71.42.82,0,1.66-.14,2.51-.42.85-.28,1.62-.67,2.31-1.18.69-.51,1.25-1.13,1.7-1.87.44-.74.67-1.55.67-2.44,0-.82-.21-1.66-.62-2.53-.41-.87-.95-1.73-1.62-2.58-.67-.85-1.43-1.7-2.29-2.56-.85-.85-1.72-1.69-2.61-2.51-.92-.88-1.84-1.78-2.75-2.68-.92-.9-1.74-1.83-2.46-2.78-.72-.95-1.31-1.92-1.77-2.9-.46-.98-.69-1.97-.69-2.95,0-1.51.42-2.8,1.28-3.89.85-1.08,1.9-1.97,3.15-2.66,1.25-.69,2.6-1.19,4.06-1.5,1.46-.31,2.81-.47,4.06-.47,1.71,0,3.31.21,4.82.64.1,0,.15.06.15.2-.1,1.05-.21,2.1-.32,3.15-.11,1.05-.25,2.1-.42,3.15,0,.07,0,.12-.03.17-.02.05-.02.11-.02.17,0,.1-.06.16-.17.17s-.19-.03-.22-.12c-.16-.79-.42-1.52-.76-2.21-.34-.69-.77-1.29-1.28-1.8-.51-.51-1.1-.92-1.77-1.23-.67-.31-1.42-.47-2.24-.47s-1.65.15-2.39.44c-.74.3-1.38.7-1.92,1.21s-.97,1.12-1.28,1.84c-.31.72-.47,1.51-.47,2.36s.19,1.71.57,2.48c.38.77.87,1.53,1.48,2.26.61.74,1.31,1.46,2.11,2.17.8.7,1.63,1.4,2.48,2.09.92.79,1.84,1.58,2.75,2.39.92.8,1.74,1.65,2.46,2.53.72.89,1.3,1.84,1.75,2.85.44,1.02.67,2.13.67,3.34,0,1.57-.41,2.99-1.23,4.25Z"/>
    <path class="cls-1" d="M122.24,293.94c-1.03,2.18-2.42,4.07-4.16,5.66s-3.75,2.83-6.05,3.71c-2.3.88-4.71,1.33-7.23,1.33-1.38,0-2.8-.23-4.28-.69-1.48-.46-2.92-1.1-4.33-1.92-1.41-.82-2.75-1.79-4.01-2.9-1.26-1.11-2.38-2.31-3.35-3.59-.97-1.28-1.73-2.62-2.29-4.03-.56-1.41-.84-2.84-.84-4.28,0-3.21.29-5.98.88-8.31.59-2.33,1.56-4.3,2.9-5.93,1.34-1.62,3.1-2.95,5.26-3.98,2.16-1.03,4.82-1.88,7.97-2.53.13-.03.26-.05.39-.05h.44c2.85,0,5.51.52,7.97,1.57,2.46,1.05,4.6,2.49,6.42,4.33,1.82,1.84,3.25,3.99,4.28,6.47,1.03,2.48,1.55,5.14,1.55,7.99,0,2.59-.52,4.98-1.55,7.16ZM118.53,280.14c-.66-2.16-1.61-4.11-2.88-5.85-1.26-1.74-2.83-3.15-4.7-4.23-1.87-1.08-4.02-1.62-6.44-1.62-2.29,0-4.33.42-6.1,1.25-1.77.84-3.26,1.97-4.48,3.39-1.21,1.43-2.13,3.1-2.75,5.02-.62,1.92-.93,3.96-.93,6.12s.34,4.39,1.01,6.59c.67,2.2,1.66,4.17,2.95,5.9,1.3,1.74,2.89,3.16,4.77,4.25,1.88,1.1,4.04,1.65,6.47,1.65,2.26,0,4.27-.43,6.02-1.3,1.76-.87,3.23-2.03,4.43-3.49,1.2-1.46,2.1-3.15,2.7-5.07.61-1.92.91-3.94.91-6.07s-.33-4.38-.98-6.54Z"/>
    <path class="cls-1" d="M159.92,300.01c-.28,1.08-.65,2.08-1.11,3,0,.07-.05.1-.15.1-2.1.36-4.2.65-6.3.86-2.1.21-4.23.32-6.39.32-2.65,0-5.12-.43-7.38-1.3-2.26-.87-4.22-2.1-5.88-3.69-1.66-1.59-2.94-3.49-3.86-5.71-.92-2.21-1.38-4.68-1.38-7.4,0-1.41.14-2.82.42-4.23.28-1.41.69-2.79,1.23-4.13.54-1.35,1.2-2.62,1.99-3.84.79-1.21,1.69-2.31,2.7-3.3.82-.79,1.8-1.44,2.93-1.97,1.13-.52,2.32-.94,3.57-1.25,1.25-.31,2.5-.53,3.76-.66s2.44-.2,3.52-.2c1.21,0,2.42.08,3.62.25,1.2.16,2.37.33,3.52.49.85.13,1.71.25,2.58.34.87.1,1.71.18,2.53.25.13,0,.2.07.2.2-.07,1.57-.19,3.11-.37,4.6-.18,1.49-.39,2.99-.62,4.5-.03.1-.1.15-.2.15-.07,0-.12-.05-.15-.15-.26-1.48-.73-2.77-1.4-3.89-.67-1.11-1.52-2.05-2.53-2.8-1.02-.75-2.16-1.32-3.44-1.7-1.28-.38-2.62-.57-4.03-.57-2.33,0-4.44.37-6.34,1.11-1.9.74-3.53,1.79-4.87,3.15-1.35,1.36-2.39,2.99-3.12,4.89-.74,1.9-1.11,4.02-1.11,6.34s.43,4.77,1.3,7.03c.87,2.26,2.08,4.26,3.64,6,1.56,1.74,3.41,3.13,5.56,4.18,2.15,1.05,4.48,1.57,7.01,1.57,1.44,0,2.69-.16,3.74-.47,1.05-.31,1.98-.78,2.78-1.4.8-.62,1.51-1.4,2.12-2.34.61-.93,1.2-2.04,1.8-3.32.06-.1.14-.14.22-.12.08.02.14.07.17.17.1.56.15,1.13.15,1.72,0,1.05-.14,2.11-.42,3.2Z"/>
    <path class="cls-1" d="M174.21,303.8h-2.26c-1.25,0-2.5,0-3.76.02-1.26.02-2.52.04-3.76.07-.1,0-.16-.05-.17-.15-.02-.1.02-.18.12-.25,2.23-.85,3.35-2.48,3.35-4.87v-27.6c0-1.08-.35-1.84-1.06-2.26-.71-.43-1.53-.71-2.48-.84-.1-.03-.15-.1-.15-.2,0-.13.05-.2.15-.2,1.9.2,3.85.3,5.85.3.92,0,1.83-.02,2.73-.07s1.8-.14,2.68-.27c.1-.03.16.02.2.15.03.13,0,.21-.1.25-.49.1-.94.21-1.35.34-.41.13-.76.3-1.06.52-.3.21-.52.49-.69.84-.16.35-.25.81-.25,1.4v27.45c0,1.67.33,2.89.98,3.64.66.76,1.79,1.21,3.39,1.38v.39c-.79-.03-1.57-.05-2.36-.05Z"/>
    <path class="cls-1" d="M215.62,303.8c-.42.03-.86.04-1.3.02-.44-.01-.86-.06-1.25-.12-.33-.03-.67-.06-1.03-.1-.36-.03-.71-.05-1.03-.05-.82,0-1.64.02-2.46.07-.82.05-1.64.11-2.46.17-.16.03-.36.05-.59.05s-.43.02-.59.05c-.1.03-.16,0-.2-.12-.03-.11,0-.21.1-.27l2.66-1.23c-.79-2.1-1.59-4.19-2.41-6.27-.82-2.08-1.62-4.17-2.41-6.27h-10.43c-.23.56-.56,1.41-.98,2.56-.43,1.15-.84,2.34-1.25,3.57-.41,1.23-.77,2.4-1.08,3.52-.31,1.12-.47,1.92-.47,2.41,0,.33.09.6.27.81.18.21.4.39.66.52.26.13.55.22.86.27.31.05.6.09.86.12v.39c-.26-.03-.54-.05-.84-.05s-.57-.02-.84-.05c-.56-.06-1.12-.11-1.67-.15-.56-.03-1.12-.05-1.67-.05-.59,0-1.18.02-1.77.05-.59.03-1.16.08-1.72.15-.36.03-.71.06-1.06.07-.35.02-.7.04-1.06.07-.1,0-.16-.06-.17-.17s.02-.19.12-.22c1.28-.2,2.35-.61,3.22-1.23.87-.62,1.53-1.51,1.99-2.65,1.25-3.12,2.43-6.23,3.54-9.35,1.11-3.12,2.23-6.26,3.34-9.44.82-2.33,1.66-4.67,2.53-7.03.87-2.36,1.73-4.69,2.58-6.98.03-.1.1-.15.2-.15s.16.05.2.15c.16.46.34.93.54,1.43.2.49.38.98.54,1.47.88,2.46,1.82,5,2.8,7.62.98,2.62,2.01,5.25,3.07,7.87,1.07,2.62,2.17,5.21,3.3,7.75,1.13,2.54,2.32,4.99,3.57,7.35.56,1.02,1.25,1.75,2.07,2.19.82.44,1.79.71,2.9.81.1,0,.15.06.15.2s-.05.2-.15.2l-1.18.05ZM197.47,273.5c-.16.46-.32.91-.47,1.35s-.29.88-.42,1.3c-.66,1.97-1.27,3.89-1.85,5.76-.57,1.87-1.2,3.77-1.89,5.71h8.95l-4.33-14.12Z"/>
    <path class="cls-1" d="M244.5,270.82c-.03,1.1-.18,2.09-.44,2.97-.03.1-.1.15-.2.15s-.16-.05-.2-.15c-.17-.82-.42-1.48-.76-1.99-.35-.51-.78-.91-1.3-1.2s-1.11-.5-1.77-.62c-.66-.11-1.35-.17-2.07-.17h-5.95v28.73c0,1.31.42,2.43,1.25,3.35.84.92,1.88,1.48,3.12,1.67.1.03.14.11.12.22s-.07.17-.17.17c-1.15-.1-2.3-.18-3.47-.25-1.16-.06-2.34-.1-3.52-.1-.85,0-1.7.02-2.53.07-.84.05-1.68.11-2.53.17-.1,0-.16-.06-.17-.17s.02-.19.12-.22c.79-.16,1.4-.35,1.84-.54.44-.2.77-.46.98-.79.21-.33.35-.75.39-1.25.05-.51.07-1.16.07-1.94v-29.07h-8.12c-1.05,0-1.98.37-2.78,1.11-.8.74-1.4,1.56-1.8,2.48-.06.1-.14.14-.22.12-.08-.02-.12-.07-.12-.17-.07-.33-.1-.62-.1-.88,0-.66.08-1.3.25-1.92.16-.62.34-1.26.54-1.92.1-.33.2-.65.29-.96.1-.31.18-.61.25-.91.06-.2.16-.23.29-.1.69.43,1.36.7,2.02.81s1.41.17,2.26.17h21.35c.26,0,.55-.04.86-.12.31-.08.6-.16.86-.22.16-.03.35-.07.57-.1.21-.03.43-.06.67-.1.1,0,.15.07.15.2v.39c0,.95-.02,1.98-.05,3.07Z"/>
    <path class="cls-1" d="M269.51,299.94c-.12.8-.24,1.6-.37,2.39v-.05l-.15,1.18c0,.13-.07.2-.2.2,0-.03-.05,0-.15.1l-.74.15h-3.15c-1.05,0-2.1-.01-3.15-.05-1.05,0-2.08,0-3.1-.03-1.02-.01-2.05-.02-3.1-.02h-3.15c-1.05,0-2.1.03-3.15.1v-.39c.72-.03,1.3-.19,1.72-.47.42-.28.75-.64.98-1.08.23-.44.39-.95.47-1.53.08-.57.12-1.15.12-1.75v-27.79c0-.49-.06-.88-.17-1.16-.12-.28-.27-.5-.47-.66-.2-.16-.42-.29-.67-.37s-.52-.16-.81-.22c-.33-.06-.65-.16-.96-.27-.31-.11-.65-.3-1.01-.57-.07-.06-.08-.13-.05-.2.03-.06.08-.1.15-.1h3c1.08.03,2.38.06,3.89.07,1.51.02,2.95.02,4.33.02,1.05,0,2.07,0,3.07-.02,1-.02,1.9-.04,2.71-.07.8-.03,1.49-.08,2.07-.15.57-.06.96-.15,1.16-.25.2-.13.29-.08.29.15-.1.92-.24,1.84-.42,2.75-.18.92-.37,1.8-.57,2.65-.03.16-.07.3-.1.42-.03.11-.07.25-.1.42-.03.1-.11.14-.22.12-.12-.01-.17-.07-.17-.17-.13-1.61-.67-2.66-1.62-3.17-.95-.51-2.17-.76-3.64-.76h-5.26v13.92h7.72c.23,0,.52-.07.86-.22.34-.15.7-.3,1.06-.47.26-.13.52-.25.79-.34s.52-.18.79-.25c.16-.07.25,0,.25.2-.06.52-.13,1.05-.2,1.57-.07.52-.13,1.03-.2,1.53-.1.66-.19,1.29-.27,1.89-.08.61-.16,1.22-.22,1.84,0,.1-.04.16-.12.2-.08.03-.16.02-.22-.05-.16-.16-.3-.37-.39-.62-.1-.25-.18-.5-.25-.76-.07-.26-.15-.52-.25-.79-.1-.26-.28-.52-.54-.79-.2-.23-.6-.41-1.21-.54-.61-.13-1.26-.22-1.97-.27s-1.4-.07-2.09-.07h-3.49v13.68c.33.56.74,1.03,1.23,1.43.49.39,1.03.72,1.6.98.57.26,1.17.46,1.8.59s1.23.2,1.82.2c1.54,0,2.88-.41,4.01-1.23,1.13-.82,1.88-1.98,2.24-3.49l.34.05c-.16.79-.3,1.58-.42,2.39Z"/>
    <path class="cls-1" d="M291.38,298.51c-.82,1.26-1.86,2.35-3.12,3.27-1.26.92-2.65,1.62-4.18,2.11-1.52.49-2.97.74-4.35.74-.69,0-1.39-.07-2.12-.22-.72-.15-1.38-.39-1.97-.74-.59-.35-1.07-.79-1.45-1.33-.38-.54-.57-1.22-.57-2.04,0-.59.06-1.15.17-1.67.11-.52.24-1.03.37-1.53.06-.26.12-.53.17-.81.05-.28.11-.55.17-.81.03-.1.11-.14.22-.12.11.02.17.07.17.17v.54c0,1.02.17,1.92.52,2.7.34.79.83,1.44,1.45,1.97.62.53,1.34.93,2.16,1.21.82.28,1.72.42,2.71.42.82,0,1.66-.14,2.51-.42.85-.28,1.62-.67,2.31-1.18.69-.51,1.25-1.13,1.7-1.87.44-.74.67-1.55.67-2.44,0-.82-.21-1.66-.62-2.53-.41-.87-.95-1.73-1.62-2.58-.67-.85-1.43-1.7-2.29-2.56-.85-.85-1.72-1.69-2.61-2.51-.92-.88-1.84-1.78-2.75-2.68-.92-.9-1.74-1.83-2.46-2.78-.72-.95-1.31-1.92-1.77-2.9-.46-.98-.69-1.97-.69-2.95,0-1.51.42-2.8,1.28-3.89.85-1.08,1.9-1.97,3.15-2.66,1.25-.69,2.6-1.19,4.06-1.5,1.46-.31,2.81-.47,4.06-.47,1.71,0,3.31.21,4.82.64.1,0,.15.06.15.2-.1,1.05-.21,2.1-.32,3.15-.11,1.05-.25,2.1-.42,3.15,0,.07,0,.12-.03.17-.02.05-.02.11-.02.17,0,.1-.06.16-.17.17s-.19-.03-.22-.12c-.16-.79-.42-1.52-.76-2.21-.34-.69-.77-1.29-1.28-1.8-.51-.51-1.1-.92-1.77-1.23-.67-.31-1.42-.47-2.24-.47s-1.65.15-2.39.44c-.74.3-1.38.7-1.92,1.21-.54.51-.97,1.12-1.28,1.84-.31.72-.47,1.51-.47,2.36s.19,1.71.57,2.48c.38.77.87,1.53,1.48,2.26.61.74,1.31,1.46,2.11,2.17.8.7,1.63,1.4,2.48,2.09.92.79,1.84,1.58,2.75,2.39.92.8,1.74,1.65,2.46,2.53.72.89,1.3,1.84,1.75,2.85.44,1.02.67,2.13.67,3.34,0,1.57-.41,2.99-1.23,4.25Z"/>
  </g>
  <g>
    <path class="cls-1" d="M275.52,149.12c-.4.05-.52.04-.81-.24-.26-.24-1.21-2.39-1.48-2.94-4.84-9.76-9.19-19.79-13.87-29.63L213.41.6h62.11s0,148.52,0,148.52Z"/>
    <path class="cls-1" d="M175.38,150.52l-.35-.58c.17-.22.38-.4.61-.55,1.69-1.09,5-2.03,7.07-3.17,16.71-9.22,24.4-27.41,19.47-46-3.24-12.21-12.06-20.31-23.77-24.38-2.42-.84-4.95-1.26-7.33-2.21,8.69-5.32,18.3-10.69,22.53-20.5,3.38-7.85,3.72-18.84.9-26.89-4.25-12.16-15.64-19.73-27.44-23.5-1.21-.39-4.29-.88-5.13-1.38-.45-.27-.44-.38-.39-.89l29.95.05,27.27,69.03h-13.26v10.7h16.4c.22,0,.93.4,1.36.27l27.97,69.5-.26.48h-75.6Z"/>
    <path class="cls-1" d="M110.83,150.52h-24.77L18.21,3.67l-1.12-3.18c1.11-.02,2.26-.21,3.36-.25,5.83-.21,13.59-.41,19.33,0,.45.03,2.11.23,2.32.47l68.73,149.8Z"/>
    <path class="cls-1" d="M112.46,141.68v-63.5c2.67.05,5.36-.06,8.03,0,17.21.32,40.42-2.33,51.84,13.53,7.09,9.85,8.12,28.38.14,38-9.02,10.88-24.41,11.91-37.55,12.23-7.47.18-15.01,0-22.46-.24Z"/>
    <path class="cls-1" d="M112.46,68.64V10.02h22.69c21.31.79,39.1,8.96,37.06,33.35-1.21,14.49-12.44,24.68-26.84,25.27h-32.91Z"/>
  </g>
</svg>